M48
INCH,TZ
T1C0.0157
T2C0.0394
T3C0.1083
%
G90
G05
T1
X5500Y-14500
X6500Y-14500
X7500Y-14625
X9500Y-13500
X10750Y-20000
X10875Y-17875
X11125Y-17625
X11750Y-18000
X12750Y-20000
X12875Y-17875
X13125Y-17625
X13750Y-18000
X14750Y-20000
X14875Y-17875
X15125Y-17625
X15750Y-18000
X16125Y-13125
X16125Y-13625
X16125Y-14125
X16125Y-14625
X16750Y-20000
X16875Y-17875
X17125Y-12923
X17125Y-13375
X17125Y-13875
X17125Y-14375
X17125Y-14875
X17125Y-17625
X17375Y-13125
X17750Y-18000
X18375Y-12500
X18375Y-12875
X18375Y-13625
X18375Y-14125
X18375Y-14625
X18375Y-15125
X18750Y-20000
X18875Y-17875
X19125Y-17625
X19375Y-12625
X19375Y-13375
X19375Y-13875
X19375Y-14375
X19375Y-15000
X19750Y-18000
X20750Y-20000
X20875Y-17875
X21125Y-17625
X21750Y-18000
X22750Y-20000
X22875Y-17875
X23125Y-17625
X23750Y-18000
X24665Y-20000
X24875Y-17875
X25125Y-17625
X25750Y-18000
X28248Y-14370
X28250Y-13375
X28250Y-15354
T2
X27264Y-16732
X27264Y-18504
X29823Y-16732
X29823Y-18504
X10197Y-19685
X11197Y-19685
X12197Y-19685
X13197Y-19685
X14197Y-19685
X15197Y-19685
X16197Y-19685
X17197Y-19685
X18197Y-19685
X19197Y-19685
X20197Y-19685
X21197Y-19685
X22197Y-19685
X23197Y-19685
X24197Y-19685
X25197Y-19685
X5690Y-16724
X5690Y-18496
X8250Y-16724
X8250Y-18496
X8217Y-10524
X8217Y-11524
X9217Y-10524
X9217Y-11524
X10217Y-10524
X10217Y-11524
X11217Y-10524
X11217Y-11524
X12217Y-10524
X12217Y-11524
X13217Y-10524
X13217Y-11524
X14217Y-10524
X14217Y-11524
X15217Y-10524
X15217Y-11524
X16217Y-10524
X16217Y-11524
X17217Y-10524
X17217Y-11524
X18217Y-10524
X18217Y-11524
X19217Y-10524
X19217Y-11524
X20217Y-10524
X20217Y-11524
X21217Y-10524
X21217Y-11524
X22217Y-10524
X22217Y-11524
X23217Y-10524
X23217Y-11524
X24217Y-10524
X24217Y-11524
X25217Y-10524
X25217Y-11524
X26217Y-10524
X26217Y-11524
X27217Y-10524
X27217Y-11524
X10750Y-12625
X10750Y-13625
X10750Y-14625
X10750Y-15625
T3
X29134Y-11024
X29134Y-20079
X6299Y-11024
X6299Y-20079
T0
M30
