G04 #@! TF.GenerationSoftware,KiCad,Pcbnew,(5.1.4)-1*
G04 #@! TF.CreationDate,2019-11-05T21:54:15-05:00*
G04 #@! TF.ProjectId,haptic-uhat,68617074-6963-42d7-9568-61742e6b6963,rev?*
G04 #@! TF.SameCoordinates,Original*
G04 #@! TF.FileFunction,Drawing*
%FSLAX46Y46*%
G04 Gerber Fmt 4.6, Leading zero omitted, Abs format (unit mm)*
G04 Created by KiCad (PCBNEW (5.1.4)-1) date 2019-11-05 21:54:15*
%MOMM*%
%LPD*%
G04 APERTURE LIST*
%ADD10C,0.150000*%
G04 APERTURE END LIST*
D10*
X88871428Y-26500000D02*
X88871428Y-27428571D01*
X88300000Y-26928571D01*
X88300000Y-27142857D01*
X88228571Y-27285714D01*
X88157142Y-27357142D01*
X88014285Y-27428571D01*
X87657142Y-27428571D01*
X87514285Y-27357142D01*
X87442857Y-27285714D01*
X87371428Y-27142857D01*
X87371428Y-26714285D01*
X87442857Y-26571428D01*
X87514285Y-26500000D01*
X88871428Y-28357142D02*
X88871428Y-28500000D01*
X88800000Y-28642857D01*
X88728571Y-28714285D01*
X88585714Y-28785714D01*
X88300000Y-28857142D01*
X87942857Y-28857142D01*
X87657142Y-28785714D01*
X87514285Y-28714285D01*
X87442857Y-28642857D01*
X87371428Y-28500000D01*
X87371428Y-28357142D01*
X87442857Y-28214285D01*
X87514285Y-28142857D01*
X87657142Y-28071428D01*
X87942857Y-28000000D01*
X88300000Y-28000000D01*
X88585714Y-28071428D01*
X88728571Y-28142857D01*
X88800000Y-28214285D01*
X88871428Y-28357142D01*
X87514285Y-29500000D02*
X87442857Y-29571428D01*
X87371428Y-29500000D01*
X87442857Y-29428571D01*
X87514285Y-29500000D01*
X87371428Y-29500000D01*
X88871428Y-30928571D02*
X88871428Y-30214285D01*
X88157142Y-30142857D01*
X88228571Y-30214285D01*
X88300000Y-30357142D01*
X88300000Y-30714285D01*
X88228571Y-30857142D01*
X88157142Y-30928571D01*
X88014285Y-31000000D01*
X87657142Y-31000000D01*
X87514285Y-30928571D01*
X87442857Y-30857142D01*
X87371428Y-30714285D01*
X87371428Y-30357142D01*
X87442857Y-30214285D01*
X87514285Y-30142857D01*
X87371428Y-32785714D02*
X88371428Y-32785714D01*
X88228571Y-32785714D02*
X88300000Y-32857142D01*
X88371428Y-33000000D01*
X88371428Y-33214285D01*
X88300000Y-33357142D01*
X88157142Y-33428571D01*
X87371428Y-33428571D01*
X88157142Y-33428571D02*
X88300000Y-33500000D01*
X88371428Y-33642857D01*
X88371428Y-33857142D01*
X88300000Y-34000000D01*
X88157142Y-34071428D01*
X87371428Y-34071428D01*
X87371428Y-34785714D02*
X88371428Y-34785714D01*
X88228571Y-34785714D02*
X88300000Y-34857142D01*
X88371428Y-35000000D01*
X88371428Y-35214285D01*
X88300000Y-35357142D01*
X88157142Y-35428571D01*
X87371428Y-35428571D01*
X88157142Y-35428571D02*
X88300000Y-35500000D01*
X88371428Y-35642857D01*
X88371428Y-35857142D01*
X88300000Y-36000000D01*
X88157142Y-36071428D01*
X87371428Y-36071428D01*
X86800000Y-38357142D02*
X86871428Y-38285714D01*
X87085714Y-38142857D01*
X87228571Y-38071428D01*
X87442857Y-38000000D01*
X87800000Y-37928571D01*
X88085714Y-37928571D01*
X88442857Y-38000000D01*
X88657142Y-38071428D01*
X88800000Y-38142857D01*
X89014285Y-38285714D01*
X89085714Y-38357142D01*
X87442857Y-38857142D02*
X87371428Y-39071428D01*
X87371428Y-39428571D01*
X87442857Y-39571428D01*
X87514285Y-39642857D01*
X87657142Y-39714285D01*
X87800000Y-39714285D01*
X87942857Y-39642857D01*
X88014285Y-39571428D01*
X88085714Y-39428571D01*
X88157142Y-39142857D01*
X88228571Y-39000000D01*
X88300000Y-38928571D01*
X88442857Y-38857142D01*
X88585714Y-38857142D01*
X88728571Y-38928571D01*
X88800000Y-39000000D01*
X88871428Y-39142857D01*
X88871428Y-39500000D01*
X88800000Y-39714285D01*
X87371428Y-40357142D02*
X88871428Y-40357142D01*
X87800000Y-40857142D01*
X88871428Y-41357142D01*
X87371428Y-41357142D01*
X88871428Y-41857142D02*
X88871428Y-42714285D01*
X87371428Y-42285714D02*
X88871428Y-42285714D01*
X87442857Y-44285714D02*
X87371428Y-44428571D01*
X87371428Y-44714285D01*
X87442857Y-44857142D01*
X87585714Y-44928571D01*
X87657142Y-44928571D01*
X87800000Y-44857142D01*
X87871428Y-44714285D01*
X87871428Y-44500000D01*
X87942857Y-44357142D01*
X88085714Y-44285714D01*
X88157142Y-44285714D01*
X88300000Y-44357142D01*
X88371428Y-44500000D01*
X88371428Y-44714285D01*
X88300000Y-44857142D01*
X87371428Y-45785714D02*
X87442857Y-45642857D01*
X87514285Y-45571428D01*
X87657142Y-45500000D01*
X88085714Y-45500000D01*
X88228571Y-45571428D01*
X88300000Y-45642857D01*
X88371428Y-45785714D01*
X88371428Y-46000000D01*
X88300000Y-46142857D01*
X88228571Y-46214285D01*
X88085714Y-46285714D01*
X87657142Y-46285714D01*
X87514285Y-46214285D01*
X87442857Y-46142857D01*
X87371428Y-46000000D01*
X87371428Y-45785714D01*
X87442857Y-47571428D02*
X87371428Y-47428571D01*
X87371428Y-47142857D01*
X87442857Y-47000000D01*
X87514285Y-46928571D01*
X87657142Y-46857142D01*
X88085714Y-46857142D01*
X88228571Y-46928571D01*
X88300000Y-47000000D01*
X88371428Y-47142857D01*
X88371428Y-47428571D01*
X88300000Y-47571428D01*
X87371428Y-48214285D02*
X88871428Y-48214285D01*
X87942857Y-48357142D02*
X87371428Y-48785714D01*
X88371428Y-48785714D02*
X87800000Y-48214285D01*
X87442857Y-50000000D02*
X87371428Y-49857142D01*
X87371428Y-49571428D01*
X87442857Y-49428571D01*
X87585714Y-49357142D01*
X88157142Y-49357142D01*
X88300000Y-49428571D01*
X88371428Y-49571428D01*
X88371428Y-49857142D01*
X88300000Y-50000000D01*
X88157142Y-50071428D01*
X88014285Y-50071428D01*
X87871428Y-49357142D01*
X88371428Y-50500000D02*
X88371428Y-51071428D01*
X88871428Y-50714285D02*
X87585714Y-50714285D01*
X87442857Y-50785714D01*
X87371428Y-50928571D01*
X87371428Y-51071428D01*
X86800000Y-51428571D02*
X86871428Y-51500000D01*
X87085714Y-51642857D01*
X87228571Y-51714285D01*
X87442857Y-51785714D01*
X87800000Y-51857142D01*
X88085714Y-51857142D01*
X88442857Y-51785714D01*
X88657142Y-51714285D01*
X88800000Y-51642857D01*
X89014285Y-51500000D01*
X89085714Y-51428571D01*
X87000000Y-24000000D02*
X87000000Y-54500000D01*
X78500000Y-24000000D02*
X89100000Y-24000000D01*
X78500000Y-54500000D02*
X89100000Y-54500000D01*
X87000000Y-54500000D02*
X86413579Y-53373496D01*
X87000000Y-54500000D02*
X87586421Y-53373496D01*
X87000000Y-24000000D02*
X86413579Y-25126504D01*
X87000000Y-24000000D02*
X87586421Y-25126504D01*
X83871428Y-28428571D02*
X83871428Y-29357142D01*
X83300000Y-28857142D01*
X83300000Y-29071428D01*
X83228571Y-29214285D01*
X83157142Y-29285714D01*
X83014285Y-29357142D01*
X82657142Y-29357142D01*
X82514285Y-29285714D01*
X82442857Y-29214285D01*
X82371428Y-29071428D01*
X82371428Y-28642857D01*
X82442857Y-28500000D01*
X82514285Y-28428571D01*
X83871428Y-30285714D02*
X83871428Y-30428571D01*
X83800000Y-30571428D01*
X83728571Y-30642857D01*
X83585714Y-30714285D01*
X83300000Y-30785714D01*
X82942857Y-30785714D01*
X82657142Y-30714285D01*
X82514285Y-30642857D01*
X82442857Y-30571428D01*
X82371428Y-30428571D01*
X82371428Y-30285714D01*
X82442857Y-30142857D01*
X82514285Y-30071428D01*
X82657142Y-30000000D01*
X82942857Y-29928571D01*
X83300000Y-29928571D01*
X83585714Y-30000000D01*
X83728571Y-30071428D01*
X83800000Y-30142857D01*
X83871428Y-30285714D01*
X82371428Y-32571428D02*
X83371428Y-32571428D01*
X83228571Y-32571428D02*
X83300000Y-32642857D01*
X83371428Y-32785714D01*
X83371428Y-33000000D01*
X83300000Y-33142857D01*
X83157142Y-33214285D01*
X82371428Y-33214285D01*
X83157142Y-33214285D02*
X83300000Y-33285714D01*
X83371428Y-33428571D01*
X83371428Y-33642857D01*
X83300000Y-33785714D01*
X83157142Y-33857142D01*
X82371428Y-33857142D01*
X82371428Y-34571428D02*
X83371428Y-34571428D01*
X83228571Y-34571428D02*
X83300000Y-34642857D01*
X83371428Y-34785714D01*
X83371428Y-35000000D01*
X83300000Y-35142857D01*
X83157142Y-35214285D01*
X82371428Y-35214285D01*
X83157142Y-35214285D02*
X83300000Y-35285714D01*
X83371428Y-35428571D01*
X83371428Y-35642857D01*
X83300000Y-35785714D01*
X83157142Y-35857142D01*
X82371428Y-35857142D01*
X81800000Y-38142857D02*
X81871428Y-38071428D01*
X82085714Y-37928571D01*
X82228571Y-37857142D01*
X82442857Y-37785714D01*
X82800000Y-37714285D01*
X83085714Y-37714285D01*
X83442857Y-37785714D01*
X83657142Y-37857142D01*
X83800000Y-37928571D01*
X84014285Y-38071428D01*
X84085714Y-38142857D01*
X83871428Y-38500000D02*
X83871428Y-39357142D01*
X82371428Y-38928571D02*
X83871428Y-38928571D01*
X82371428Y-39857142D02*
X83871428Y-39857142D01*
X82371428Y-40500000D02*
X83157142Y-40500000D01*
X83300000Y-40428571D01*
X83371428Y-40285714D01*
X83371428Y-40071428D01*
X83300000Y-39928571D01*
X83228571Y-39857142D01*
X82371428Y-41214285D02*
X83371428Y-41214285D01*
X83085714Y-41214285D02*
X83228571Y-41285714D01*
X83300000Y-41357142D01*
X83371428Y-41500000D01*
X83371428Y-41642857D01*
X83371428Y-42785714D02*
X82371428Y-42785714D01*
X83371428Y-42142857D02*
X82585714Y-42142857D01*
X82442857Y-42214285D01*
X82371428Y-42357142D01*
X82371428Y-42571428D01*
X82442857Y-42714285D01*
X82514285Y-42785714D01*
X82942857Y-43500000D02*
X82942857Y-44642857D01*
X82371428Y-45357142D02*
X83871428Y-45357142D01*
X82371428Y-46000000D02*
X83157142Y-46000000D01*
X83300000Y-45928571D01*
X83371428Y-45785714D01*
X83371428Y-45571428D01*
X83300000Y-45428571D01*
X83228571Y-45357142D01*
X82371428Y-46928571D02*
X82442857Y-46785714D01*
X82514285Y-46714285D01*
X82657142Y-46642857D01*
X83085714Y-46642857D01*
X83228571Y-46714285D01*
X83300000Y-46785714D01*
X83371428Y-46928571D01*
X83371428Y-47142857D01*
X83300000Y-47285714D01*
X83228571Y-47357142D01*
X83085714Y-47428571D01*
X82657142Y-47428571D01*
X82514285Y-47357142D01*
X82442857Y-47285714D01*
X82371428Y-47142857D01*
X82371428Y-46928571D01*
X82371428Y-48285714D02*
X82442857Y-48142857D01*
X82585714Y-48071428D01*
X83871428Y-48071428D01*
X82442857Y-49428571D02*
X82371428Y-49285714D01*
X82371428Y-49000000D01*
X82442857Y-48857142D01*
X82585714Y-48785714D01*
X83157142Y-48785714D01*
X83300000Y-48857142D01*
X83371428Y-49000000D01*
X83371428Y-49285714D01*
X83300000Y-49428571D01*
X83157142Y-49500000D01*
X83014285Y-49500000D01*
X82871428Y-48785714D01*
X81800000Y-50000000D02*
X81871428Y-50071428D01*
X82085714Y-50214285D01*
X82228571Y-50285714D01*
X82442857Y-50357142D01*
X82800000Y-50428571D01*
X83085714Y-50428571D01*
X83442857Y-50357142D01*
X83657142Y-50285714D01*
X83800000Y-50214285D01*
X84014285Y-50071428D01*
X84085714Y-50000000D01*
X82000000Y-24500000D02*
X82000000Y-54500000D01*
X78500000Y-24500000D02*
X84100000Y-24500000D01*
X78500000Y-54500000D02*
X84100000Y-54500000D01*
X82000000Y-54500000D02*
X81413579Y-53373496D01*
X82000000Y-54500000D02*
X82586421Y-53373496D01*
X82000000Y-24500000D02*
X81413579Y-25626504D01*
X82000000Y-24500000D02*
X82586421Y-25626504D01*
X7271428Y-45714285D02*
X7200000Y-45642857D01*
X7128571Y-45500000D01*
X7128571Y-45142857D01*
X7200000Y-45000000D01*
X7271428Y-44928571D01*
X7414285Y-44857142D01*
X7557142Y-44857142D01*
X7771428Y-44928571D01*
X8628571Y-45785714D01*
X8628571Y-44857142D01*
X7128571Y-44357142D02*
X7128571Y-43428571D01*
X7700000Y-43928571D01*
X7700000Y-43714285D01*
X7771428Y-43571428D01*
X7842857Y-43500000D01*
X7985714Y-43428571D01*
X8342857Y-43428571D01*
X8485714Y-43500000D01*
X8557142Y-43571428D01*
X8628571Y-43714285D01*
X8628571Y-44142857D01*
X8557142Y-44285714D01*
X8485714Y-44357142D01*
X8485714Y-42785714D02*
X8557142Y-42714285D01*
X8628571Y-42785714D01*
X8557142Y-42857142D01*
X8485714Y-42785714D01*
X8628571Y-42785714D01*
X7128571Y-41785714D02*
X7128571Y-41642857D01*
X7200000Y-41500000D01*
X7271428Y-41428571D01*
X7414285Y-41357142D01*
X7700000Y-41285714D01*
X8057142Y-41285714D01*
X8342857Y-41357142D01*
X8485714Y-41428571D01*
X8557142Y-41500000D01*
X8628571Y-41642857D01*
X8628571Y-41785714D01*
X8557142Y-41928571D01*
X8485714Y-42000000D01*
X8342857Y-42071428D01*
X8057142Y-42142857D01*
X7700000Y-42142857D01*
X7414285Y-42071428D01*
X7271428Y-42000000D01*
X7200000Y-41928571D01*
X7128571Y-41785714D01*
X7128571Y-40357142D02*
X7128571Y-40214285D01*
X7200000Y-40071428D01*
X7271428Y-40000000D01*
X7414285Y-39928571D01*
X7700000Y-39857142D01*
X8057142Y-39857142D01*
X8342857Y-39928571D01*
X8485714Y-40000000D01*
X8557142Y-40071428D01*
X8628571Y-40214285D01*
X8628571Y-40357142D01*
X8557142Y-40500000D01*
X8485714Y-40571428D01*
X8342857Y-40642857D01*
X8057142Y-40714285D01*
X7700000Y-40714285D01*
X7414285Y-40642857D01*
X7271428Y-40571428D01*
X7200000Y-40500000D01*
X7128571Y-40357142D01*
X7128571Y-38928571D02*
X7128571Y-38785714D01*
X7200000Y-38642857D01*
X7271428Y-38571428D01*
X7414285Y-38500000D01*
X7700000Y-38428571D01*
X8057142Y-38428571D01*
X8342857Y-38500000D01*
X8485714Y-38571428D01*
X8557142Y-38642857D01*
X8628571Y-38785714D01*
X8628571Y-38928571D01*
X8557142Y-39071428D01*
X8485714Y-39142857D01*
X8342857Y-39214285D01*
X8057142Y-39285714D01*
X7700000Y-39285714D01*
X7414285Y-39214285D01*
X7271428Y-39142857D01*
X7200000Y-39071428D01*
X7128571Y-38928571D01*
X8628571Y-36642857D02*
X7628571Y-36642857D01*
X7771428Y-36642857D02*
X7700000Y-36571428D01*
X7628571Y-36428571D01*
X7628571Y-36214285D01*
X7700000Y-36071428D01*
X7842857Y-36000000D01*
X8628571Y-36000000D01*
X7842857Y-36000000D02*
X7700000Y-35928571D01*
X7628571Y-35785714D01*
X7628571Y-35571428D01*
X7700000Y-35428571D01*
X7842857Y-35357142D01*
X8628571Y-35357142D01*
X8628571Y-34642857D02*
X7628571Y-34642857D01*
X7771428Y-34642857D02*
X7700000Y-34571428D01*
X7628571Y-34428571D01*
X7628571Y-34214285D01*
X7700000Y-34071428D01*
X7842857Y-34000000D01*
X8628571Y-34000000D01*
X7842857Y-34000000D02*
X7700000Y-33928571D01*
X7628571Y-33785714D01*
X7628571Y-33571428D01*
X7700000Y-33428571D01*
X7842857Y-33357142D01*
X8628571Y-33357142D01*
X9000000Y-51000000D02*
X9000000Y-28000000D01*
X11500000Y-51000000D02*
X6900000Y-51000000D01*
X11500000Y-28000000D02*
X6900000Y-28000000D01*
X9000000Y-28000000D02*
X9586421Y-29126504D01*
X9000000Y-28000000D02*
X8413579Y-29126504D01*
X9000000Y-51000000D02*
X9586421Y-49873496D01*
X9000000Y-51000000D02*
X8413579Y-49873496D01*
X16857142Y-57678571D02*
X17785714Y-57678571D01*
X17285714Y-58250000D01*
X17500000Y-58250000D01*
X17642857Y-58321428D01*
X17714285Y-58392857D01*
X17785714Y-58535714D01*
X17785714Y-58892857D01*
X17714285Y-59035714D01*
X17642857Y-59107142D01*
X17500000Y-59178571D01*
X17071428Y-59178571D01*
X16928571Y-59107142D01*
X16857142Y-59035714D01*
X18428571Y-59035714D02*
X18500000Y-59107142D01*
X18428571Y-59178571D01*
X18357142Y-59107142D01*
X18428571Y-59035714D01*
X18428571Y-59178571D01*
X19857142Y-57678571D02*
X19142857Y-57678571D01*
X19071428Y-58392857D01*
X19142857Y-58321428D01*
X19285714Y-58250000D01*
X19642857Y-58250000D01*
X19785714Y-58321428D01*
X19857142Y-58392857D01*
X19928571Y-58535714D01*
X19928571Y-58892857D01*
X19857142Y-59035714D01*
X19785714Y-59107142D01*
X19642857Y-59178571D01*
X19285714Y-59178571D01*
X19142857Y-59107142D01*
X19071428Y-59035714D01*
X21714285Y-59178571D02*
X21714285Y-58178571D01*
X21714285Y-58321428D02*
X21785714Y-58250000D01*
X21928571Y-58178571D01*
X22142857Y-58178571D01*
X22285714Y-58250000D01*
X22357142Y-58392857D01*
X22357142Y-59178571D01*
X22357142Y-58392857D02*
X22428571Y-58250000D01*
X22571428Y-58178571D01*
X22785714Y-58178571D01*
X22928571Y-58250000D01*
X23000000Y-58392857D01*
X23000000Y-59178571D01*
X23714285Y-59178571D02*
X23714285Y-58178571D01*
X23714285Y-58321428D02*
X23785714Y-58250000D01*
X23928571Y-58178571D01*
X24142857Y-58178571D01*
X24285714Y-58250000D01*
X24357142Y-58392857D01*
X24357142Y-59178571D01*
X24357142Y-58392857D02*
X24428571Y-58250000D01*
X24571428Y-58178571D01*
X24785714Y-58178571D01*
X24928571Y-58250000D01*
X25000000Y-58392857D01*
X25000000Y-59178571D01*
X12568883Y-58281100D02*
X16068883Y-58281100D01*
X12568883Y-55281100D02*
X12568883Y-60381100D01*
X16068883Y-55281100D02*
X16068883Y-60381100D01*
X16068883Y-58281100D02*
X14942379Y-58867521D01*
X16068883Y-58281100D02*
X14942379Y-57694679D01*
X12568883Y-58281100D02*
X13695387Y-58867521D01*
X12568883Y-58281100D02*
X13695387Y-57694679D01*
X23321428Y-42357142D02*
X23321428Y-43285714D01*
X22750000Y-42785714D01*
X22750000Y-43000000D01*
X22678571Y-43142857D01*
X22607142Y-43214285D01*
X22464285Y-43285714D01*
X22107142Y-43285714D01*
X21964285Y-43214285D01*
X21892857Y-43142857D01*
X21821428Y-43000000D01*
X21821428Y-42571428D01*
X21892857Y-42428571D01*
X21964285Y-42357142D01*
X21964285Y-43928571D02*
X21892857Y-44000000D01*
X21821428Y-43928571D01*
X21892857Y-43857142D01*
X21964285Y-43928571D01*
X21821428Y-43928571D01*
X23321428Y-45357142D02*
X23321428Y-44642857D01*
X22607142Y-44571428D01*
X22678571Y-44642857D01*
X22750000Y-44785714D01*
X22750000Y-45142857D01*
X22678571Y-45285714D01*
X22607142Y-45357142D01*
X22464285Y-45428571D01*
X22107142Y-45428571D01*
X21964285Y-45357142D01*
X21892857Y-45285714D01*
X21821428Y-45142857D01*
X21821428Y-44785714D01*
X21892857Y-44642857D01*
X21964285Y-44571428D01*
X21821428Y-47214285D02*
X22821428Y-47214285D01*
X22678571Y-47214285D02*
X22750000Y-47285714D01*
X22821428Y-47428571D01*
X22821428Y-47642857D01*
X22750000Y-47785714D01*
X22607142Y-47857142D01*
X21821428Y-47857142D01*
X22607142Y-47857142D02*
X22750000Y-47928571D01*
X22821428Y-48071428D01*
X22821428Y-48285714D01*
X22750000Y-48428571D01*
X22607142Y-48500000D01*
X21821428Y-48500000D01*
X21821428Y-49214285D02*
X22821428Y-49214285D01*
X22678571Y-49214285D02*
X22750000Y-49285714D01*
X22821428Y-49428571D01*
X22821428Y-49642857D01*
X22750000Y-49785714D01*
X22607142Y-49857142D01*
X21821428Y-49857142D01*
X22607142Y-49857142D02*
X22750000Y-49928571D01*
X22821428Y-50071428D01*
X22821428Y-50285714D01*
X22750000Y-50428571D01*
X22607142Y-50500000D01*
X21821428Y-50500000D01*
X22500000Y-51500000D02*
X22500000Y-55000000D01*
X20000000Y-51500000D02*
X24600000Y-51500000D01*
X20000000Y-55000000D02*
X24600000Y-55000000D01*
X22500000Y-55000000D02*
X21913579Y-53873496D01*
X22500000Y-55000000D02*
X23086421Y-53873496D01*
X22500000Y-51500000D02*
X21913579Y-52626504D01*
X22500000Y-51500000D02*
X23086421Y-52626504D01*
X26785714Y-35171427D02*
X26857142Y-35099999D01*
X27000000Y-35028570D01*
X27357142Y-35028570D01*
X27500000Y-35099999D01*
X27571428Y-35171427D01*
X27642857Y-35314284D01*
X27642857Y-35457141D01*
X27571428Y-35671427D01*
X26714285Y-36528570D01*
X27642857Y-36528570D01*
X28357142Y-36528570D02*
X28642857Y-36528570D01*
X28785714Y-36457141D01*
X28857142Y-36385713D01*
X29000000Y-36171427D01*
X29071428Y-35885713D01*
X29071428Y-35314284D01*
X29000000Y-35171427D01*
X28928571Y-35099999D01*
X28785714Y-35028570D01*
X28500000Y-35028570D01*
X28357142Y-35099999D01*
X28285714Y-35171427D01*
X28214285Y-35314284D01*
X28214285Y-35671427D01*
X28285714Y-35814284D01*
X28357142Y-35885713D01*
X28500000Y-35957141D01*
X28785714Y-35957141D01*
X28928571Y-35885713D01*
X29000000Y-35814284D01*
X29071428Y-35671427D01*
X30857142Y-36528570D02*
X30857142Y-35528570D01*
X30857142Y-35671427D02*
X30928571Y-35599999D01*
X31071428Y-35528570D01*
X31285714Y-35528570D01*
X31428571Y-35599999D01*
X31500000Y-35742856D01*
X31500000Y-36528570D01*
X31500000Y-35742856D02*
X31571428Y-35599999D01*
X31714285Y-35528570D01*
X31928571Y-35528570D01*
X32071428Y-35599999D01*
X32142857Y-35742856D01*
X32142857Y-36528570D01*
X32857142Y-36528570D02*
X32857142Y-35528570D01*
X32857142Y-35671427D02*
X32928571Y-35599999D01*
X33071428Y-35528570D01*
X33285714Y-35528570D01*
X33428571Y-35599999D01*
X33500000Y-35742856D01*
X33500000Y-36528570D01*
X33500000Y-35742856D02*
X33571428Y-35599999D01*
X33714285Y-35528570D01*
X33928571Y-35528570D01*
X34071428Y-35599999D01*
X34142857Y-35742856D01*
X34142857Y-36528570D01*
X16000000Y-34499999D02*
X45000000Y-34499999D01*
X16000000Y-32000000D02*
X16000000Y-37199999D01*
X45000000Y-32000000D02*
X45000000Y-37199999D01*
X45000000Y-34499999D02*
X43873496Y-35086420D01*
X45000000Y-34499999D02*
X43873496Y-33913578D01*
X16000000Y-34499999D02*
X17126504Y-35086420D01*
X16000000Y-34499999D02*
X17126504Y-33913578D01*
X42071428Y-18328571D02*
X41357142Y-18328571D01*
X41285714Y-19042857D01*
X41357142Y-18971428D01*
X41500000Y-18900000D01*
X41857142Y-18900000D01*
X42000000Y-18971428D01*
X42071428Y-19042857D01*
X42142857Y-19185714D01*
X42142857Y-19542857D01*
X42071428Y-19685714D01*
X42000000Y-19757142D01*
X41857142Y-19828571D01*
X41500000Y-19828571D01*
X41357142Y-19757142D01*
X41285714Y-19685714D01*
X43000000Y-18971428D02*
X42857142Y-18900000D01*
X42785714Y-18828571D01*
X42714285Y-18685714D01*
X42714285Y-18614285D01*
X42785714Y-18471428D01*
X42857142Y-18400000D01*
X43000000Y-18328571D01*
X43285714Y-18328571D01*
X43428571Y-18400000D01*
X43500000Y-18471428D01*
X43571428Y-18614285D01*
X43571428Y-18685714D01*
X43500000Y-18828571D01*
X43428571Y-18900000D01*
X43285714Y-18971428D01*
X43000000Y-18971428D01*
X42857142Y-19042857D01*
X42785714Y-19114285D01*
X42714285Y-19257142D01*
X42714285Y-19542857D01*
X42785714Y-19685714D01*
X42857142Y-19757142D01*
X43000000Y-19828571D01*
X43285714Y-19828571D01*
X43428571Y-19757142D01*
X43500000Y-19685714D01*
X43571428Y-19542857D01*
X43571428Y-19257142D01*
X43500000Y-19114285D01*
X43428571Y-19042857D01*
X43285714Y-18971428D01*
X45357142Y-19828571D02*
X45357142Y-18828571D01*
X45357142Y-18971428D02*
X45428571Y-18900000D01*
X45571428Y-18828571D01*
X45785714Y-18828571D01*
X45928571Y-18900000D01*
X46000000Y-19042857D01*
X46000000Y-19828571D01*
X46000000Y-19042857D02*
X46071428Y-18900000D01*
X46214285Y-18828571D01*
X46428571Y-18828571D01*
X46571428Y-18900000D01*
X46642857Y-19042857D01*
X46642857Y-19828571D01*
X47357142Y-19828571D02*
X47357142Y-18828571D01*
X47357142Y-18971428D02*
X47428571Y-18900000D01*
X47571428Y-18828571D01*
X47785714Y-18828571D01*
X47928571Y-18900000D01*
X48000000Y-19042857D01*
X48000000Y-19828571D01*
X48000000Y-19042857D02*
X48071428Y-18900000D01*
X48214285Y-18828571D01*
X48428571Y-18828571D01*
X48571428Y-18900000D01*
X48642857Y-19042857D01*
X48642857Y-19828571D01*
X16000000Y-20500000D02*
X74000000Y-20500000D01*
X16000000Y-23000000D02*
X16000000Y-17800000D01*
X74000000Y-23000000D02*
X74000000Y-17800000D01*
X74000000Y-20500000D02*
X72873496Y-21086421D01*
X74000000Y-20500000D02*
X72873496Y-19913579D01*
X16000000Y-20500000D02*
X17126504Y-21086421D01*
X16000000Y-20500000D02*
X17126504Y-19913579D01*
X42000000Y-13828571D02*
X41714285Y-13828571D01*
X41571428Y-13900000D01*
X41500000Y-13971428D01*
X41357142Y-14185714D01*
X41285714Y-14471428D01*
X41285714Y-15042857D01*
X41357142Y-15185714D01*
X41428571Y-15257142D01*
X41571428Y-15328571D01*
X41857142Y-15328571D01*
X42000000Y-15257142D01*
X42071428Y-15185714D01*
X42142857Y-15042857D01*
X42142857Y-14685714D01*
X42071428Y-14542857D01*
X42000000Y-14471428D01*
X41857142Y-14400000D01*
X41571428Y-14400000D01*
X41428571Y-14471428D01*
X41357142Y-14542857D01*
X41285714Y-14685714D01*
X43500000Y-13828571D02*
X42785714Y-13828571D01*
X42714285Y-14542857D01*
X42785714Y-14471428D01*
X42928571Y-14400000D01*
X43285714Y-14400000D01*
X43428571Y-14471428D01*
X43500000Y-14542857D01*
X43571428Y-14685714D01*
X43571428Y-15042857D01*
X43500000Y-15185714D01*
X43428571Y-15257142D01*
X43285714Y-15328571D01*
X42928571Y-15328571D01*
X42785714Y-15257142D01*
X42714285Y-15185714D01*
X45357142Y-15328571D02*
X45357142Y-14328571D01*
X45357142Y-14471428D02*
X45428571Y-14400000D01*
X45571428Y-14328571D01*
X45785714Y-14328571D01*
X45928571Y-14400000D01*
X46000000Y-14542857D01*
X46000000Y-15328571D01*
X46000000Y-14542857D02*
X46071428Y-14400000D01*
X46214285Y-14328571D01*
X46428571Y-14328571D01*
X46571428Y-14400000D01*
X46642857Y-14542857D01*
X46642857Y-15328571D01*
X47357142Y-15328571D02*
X47357142Y-14328571D01*
X47357142Y-14471428D02*
X47428571Y-14400000D01*
X47571428Y-14328571D01*
X47785714Y-14328571D01*
X47928571Y-14400000D01*
X48000000Y-14542857D01*
X48000000Y-15328571D01*
X48000000Y-14542857D02*
X48071428Y-14400000D01*
X48214285Y-14328571D01*
X48428571Y-14328571D01*
X48571428Y-14400000D01*
X48642857Y-14542857D01*
X48642857Y-15328571D01*
X12500000Y-16000000D02*
X77500000Y-16000000D01*
X12500000Y-23000000D02*
X12500000Y-13300000D01*
X77500000Y-23000000D02*
X77500000Y-13300000D01*
X77500000Y-16000000D02*
X76373496Y-16586421D01*
X77500000Y-16000000D02*
X76373496Y-15413579D01*
X12500000Y-16000000D02*
X13626504Y-16586421D01*
X12500000Y-16000000D02*
X13626504Y-15413579D01*
M02*
