G04 #@! TF.GenerationSoftware,KiCad,Pcbnew,(5.1.4)-1*
G04 #@! TF.CreationDate,2019-11-05T21:54:15-05:00*
G04 #@! TF.ProjectId,haptic-uhat,68617074-6963-42d7-9568-61742e6b6963,rev?*
G04 #@! TF.SameCoordinates,Original*
G04 #@! TF.FileFunction,Legend,Top*
G04 #@! TF.FilePolarity,Positive*
%FSLAX46Y46*%
G04 Gerber Fmt 4.6, Leading zero omitted, Abs format (unit mm)*
G04 Created by KiCad (PCBNEW (5.1.4)-1) date 2019-11-05 21:54:15*
%MOMM*%
%LPD*%
G04 APERTURE LIST*
%ADD10C,0.150000*%
%ADD11C,0.100000*%
%ADD12C,0.120000*%
G04 APERTURE END LIST*
D10*
X66785714Y-50579761D02*
X66928571Y-50627380D01*
X67166666Y-50627380D01*
X67261904Y-50579761D01*
X67309523Y-50532142D01*
X67357142Y-50436904D01*
X67357142Y-50341666D01*
X67309523Y-50246428D01*
X67261904Y-50198809D01*
X67166666Y-50151190D01*
X66976190Y-50103571D01*
X66880952Y-50055952D01*
X66833333Y-50008333D01*
X66785714Y-49913095D01*
X66785714Y-49817857D01*
X66833333Y-49722619D01*
X66880952Y-49675000D01*
X66976190Y-49627380D01*
X67214285Y-49627380D01*
X67357142Y-49675000D01*
X67785714Y-50627380D02*
X67785714Y-49627380D01*
X68214285Y-50627380D02*
X68214285Y-50103571D01*
X68166666Y-50008333D01*
X68071428Y-49960714D01*
X67928571Y-49960714D01*
X67833333Y-50008333D01*
X67785714Y-50055952D01*
X68833333Y-50627380D02*
X68738095Y-50579761D01*
X68690476Y-50532142D01*
X68642857Y-50436904D01*
X68642857Y-50151190D01*
X68690476Y-50055952D01*
X68738095Y-50008333D01*
X68833333Y-49960714D01*
X68976190Y-49960714D01*
X69071428Y-50008333D01*
X69119047Y-50055952D01*
X69166666Y-50151190D01*
X69166666Y-50436904D01*
X69119047Y-50532142D01*
X69071428Y-50579761D01*
X68976190Y-50627380D01*
X68833333Y-50627380D01*
X69500000Y-49960714D02*
X69690476Y-50627380D01*
X69880952Y-50151190D01*
X70071428Y-50627380D01*
X70261904Y-49960714D01*
X68000000Y-52277380D02*
X68000000Y-51277380D01*
X68476190Y-52277380D02*
X68476190Y-51277380D01*
X68857142Y-51277380D01*
X68952380Y-51325000D01*
X69000000Y-51372619D01*
X69047619Y-51467857D01*
X69047619Y-51610714D01*
X69000000Y-51705952D01*
X68952380Y-51753571D01*
X68857142Y-51801190D01*
X68476190Y-51801190D01*
X19523809Y-50627380D02*
X19523809Y-49627380D01*
X19904761Y-49627380D01*
X19999999Y-49675000D01*
X20047619Y-49722619D01*
X20095238Y-49817857D01*
X20095238Y-49960714D01*
X20047619Y-50055952D01*
X19999999Y-50103571D01*
X19904761Y-50151190D01*
X19523809Y-50151190D01*
X20666666Y-50627380D02*
X20571428Y-50579761D01*
X20523809Y-50532142D01*
X20476190Y-50436904D01*
X20476190Y-50151190D01*
X20523809Y-50055952D01*
X20571428Y-50008333D01*
X20666666Y-49960714D01*
X20809523Y-49960714D01*
X20904761Y-50008333D01*
X20952380Y-50055952D01*
X20999999Y-50151190D01*
X20999999Y-50436904D01*
X20952380Y-50532142D01*
X20904761Y-50579761D01*
X20809523Y-50627380D01*
X20666666Y-50627380D01*
X21333333Y-49960714D02*
X21523809Y-50627380D01*
X21714285Y-50151190D01*
X21904761Y-50627380D01*
X22095238Y-49960714D01*
X22857142Y-50579761D02*
X22761904Y-50627380D01*
X22571428Y-50627380D01*
X22476190Y-50579761D01*
X22428571Y-50484523D01*
X22428571Y-50103571D01*
X22476190Y-50008333D01*
X22571428Y-49960714D01*
X22761904Y-49960714D01*
X22857142Y-50008333D01*
X22904761Y-50103571D01*
X22904761Y-50198809D01*
X22428571Y-50294047D01*
X23333333Y-50627380D02*
X23333333Y-49960714D01*
X23333333Y-50151190D02*
X23380952Y-50055952D01*
X23428571Y-50008333D01*
X23523809Y-49960714D01*
X23619047Y-49960714D01*
X20833333Y-51277380D02*
X21023809Y-51277380D01*
X21119047Y-51325000D01*
X21214285Y-51420238D01*
X21261904Y-51610714D01*
X21261904Y-51944047D01*
X21214285Y-52134523D01*
X21119047Y-52229761D01*
X21023809Y-52277380D01*
X20833333Y-52277380D01*
X20738095Y-52229761D01*
X20642857Y-52134523D01*
X20595238Y-51944047D01*
X20595238Y-51610714D01*
X20642857Y-51420238D01*
X20738095Y-51325000D01*
X20833333Y-51277380D01*
X21547619Y-51610714D02*
X21928571Y-51610714D01*
X21690476Y-52277380D02*
X21690476Y-51420238D01*
X21738095Y-51325000D01*
X21833333Y-51277380D01*
X21928571Y-51277380D01*
X22119047Y-51610714D02*
X22500000Y-51610714D01*
X22261904Y-52277380D02*
X22261904Y-51420238D01*
X22309523Y-51325000D01*
X22404761Y-51277380D01*
X22500000Y-51277380D01*
X57682380Y-32917380D02*
X57872857Y-32917380D01*
X57968095Y-32965000D01*
X58063333Y-33060238D01*
X58110952Y-33250714D01*
X58110952Y-33584047D01*
X58063333Y-33774523D01*
X57968095Y-33869761D01*
X57872857Y-33917380D01*
X57682380Y-33917380D01*
X57587142Y-33869761D01*
X57491904Y-33774523D01*
X57444285Y-33584047D01*
X57444285Y-33250714D01*
X57491904Y-33060238D01*
X57587142Y-32965000D01*
X57682380Y-32917380D01*
X58968095Y-33869761D02*
X58872857Y-33917380D01*
X58682380Y-33917380D01*
X58587142Y-33869761D01*
X58539523Y-33822142D01*
X58491904Y-33726904D01*
X58491904Y-33441190D01*
X58539523Y-33345952D01*
X58587142Y-33298333D01*
X58682380Y-33250714D01*
X58872857Y-33250714D01*
X58968095Y-33298333D01*
X59253809Y-33250714D02*
X59634761Y-33250714D01*
X59396666Y-32917380D02*
X59396666Y-33774523D01*
X59444285Y-33869761D01*
X59539523Y-33917380D01*
X59634761Y-33917380D01*
X60110952Y-33917380D02*
X60015714Y-33869761D01*
X59968095Y-33822142D01*
X59920476Y-33726904D01*
X59920476Y-33441190D01*
X59968095Y-33345952D01*
X60015714Y-33298333D01*
X60110952Y-33250714D01*
X60253809Y-33250714D01*
X60349047Y-33298333D01*
X60396666Y-33345952D01*
X60444285Y-33441190D01*
X60444285Y-33726904D01*
X60396666Y-33822142D01*
X60349047Y-33869761D01*
X60253809Y-33917380D01*
X60110952Y-33917380D01*
X60872857Y-33917380D02*
X60872857Y-32917380D01*
X61253809Y-32917380D01*
X61349047Y-32965000D01*
X61396666Y-33012619D01*
X61444285Y-33107857D01*
X61444285Y-33250714D01*
X61396666Y-33345952D01*
X61349047Y-33393571D01*
X61253809Y-33441190D01*
X60872857Y-33441190D01*
X62301428Y-33250714D02*
X62301428Y-33917380D01*
X61872857Y-33250714D02*
X61872857Y-33774523D01*
X61920476Y-33869761D01*
X62015714Y-33917380D01*
X62158571Y-33917380D01*
X62253809Y-33869761D01*
X62301428Y-33822142D01*
X62920476Y-33917380D02*
X62825238Y-33869761D01*
X62777619Y-33774523D01*
X62777619Y-32917380D01*
X63253809Y-33869761D02*
X63349047Y-33917380D01*
X63539523Y-33917380D01*
X63634761Y-33869761D01*
X63682380Y-33774523D01*
X63682380Y-33726904D01*
X63634761Y-33631666D01*
X63539523Y-33584047D01*
X63396666Y-33584047D01*
X63301428Y-33536428D01*
X63253809Y-33441190D01*
X63253809Y-33393571D01*
X63301428Y-33298333D01*
X63396666Y-33250714D01*
X63539523Y-33250714D01*
X63634761Y-33298333D01*
X64491904Y-33869761D02*
X64396666Y-33917380D01*
X64206190Y-33917380D01*
X64110952Y-33869761D01*
X64063333Y-33774523D01*
X64063333Y-33393571D01*
X64110952Y-33298333D01*
X64206190Y-33250714D01*
X64396666Y-33250714D01*
X64491904Y-33298333D01*
X64539523Y-33393571D01*
X64539523Y-33488809D01*
X64063333Y-33584047D01*
X65634761Y-33250714D02*
X65872857Y-33917380D01*
X66110952Y-33250714D01*
X66444285Y-33012619D02*
X66491904Y-32965000D01*
X66587142Y-32917380D01*
X66825238Y-32917380D01*
X66920476Y-32965000D01*
X66968095Y-33012619D01*
X67015714Y-33107857D01*
X67015714Y-33203095D01*
X66968095Y-33345952D01*
X66396666Y-33917380D01*
X67015714Y-33917380D01*
X57610952Y-34567380D02*
X57706190Y-34567380D01*
X57801428Y-34615000D01*
X57849047Y-34662619D01*
X57896666Y-34757857D01*
X57944285Y-34948333D01*
X57944285Y-35186428D01*
X57896666Y-35376904D01*
X57849047Y-35472142D01*
X57801428Y-35519761D01*
X57706190Y-35567380D01*
X57610952Y-35567380D01*
X57515714Y-35519761D01*
X57468095Y-35472142D01*
X57420476Y-35376904D01*
X57372857Y-35186428D01*
X57372857Y-34948333D01*
X57420476Y-34757857D01*
X57468095Y-34662619D01*
X57515714Y-34615000D01*
X57610952Y-34567380D01*
X58849047Y-34567380D02*
X58372857Y-34567380D01*
X58325238Y-35043571D01*
X58372857Y-34995952D01*
X58468095Y-34948333D01*
X58706190Y-34948333D01*
X58801428Y-34995952D01*
X58849047Y-35043571D01*
X58896666Y-35138809D01*
X58896666Y-35376904D01*
X58849047Y-35472142D01*
X58801428Y-35519761D01*
X58706190Y-35567380D01*
X58468095Y-35567380D01*
X58372857Y-35519761D01*
X58325238Y-35472142D01*
X59325238Y-35186428D02*
X60087142Y-35186428D01*
X61087142Y-35567380D02*
X60515714Y-35567380D01*
X60801428Y-35567380D02*
X60801428Y-34567380D01*
X60706190Y-34710238D01*
X60610952Y-34805476D01*
X60515714Y-34853095D01*
X62039523Y-35567380D02*
X61468095Y-35567380D01*
X61753809Y-35567380D02*
X61753809Y-34567380D01*
X61658571Y-34710238D01*
X61563333Y-34805476D01*
X61468095Y-34853095D01*
X62468095Y-35186428D02*
X63230000Y-35186428D01*
X63658571Y-34662619D02*
X63706190Y-34615000D01*
X63801428Y-34567380D01*
X64039523Y-34567380D01*
X64134761Y-34615000D01*
X64182380Y-34662619D01*
X64230000Y-34757857D01*
X64230000Y-34853095D01*
X64182380Y-34995952D01*
X63610952Y-35567380D01*
X64230000Y-35567380D01*
X64849047Y-34567380D02*
X64944285Y-34567380D01*
X65039523Y-34615000D01*
X65087142Y-34662619D01*
X65134761Y-34757857D01*
X65182380Y-34948333D01*
X65182380Y-35186428D01*
X65134761Y-35376904D01*
X65087142Y-35472142D01*
X65039523Y-35519761D01*
X64944285Y-35567380D01*
X64849047Y-35567380D01*
X64753809Y-35519761D01*
X64706190Y-35472142D01*
X64658571Y-35376904D01*
X64610952Y-35186428D01*
X64610952Y-34948333D01*
X64658571Y-34757857D01*
X64706190Y-34662619D01*
X64753809Y-34615000D01*
X64849047Y-34567380D01*
X66134761Y-35567380D02*
X65563333Y-35567380D01*
X65849047Y-35567380D02*
X65849047Y-34567380D01*
X65753809Y-34710238D01*
X65658571Y-34805476D01*
X65563333Y-34853095D01*
X66610952Y-35567380D02*
X66801428Y-35567380D01*
X66896666Y-35519761D01*
X66944285Y-35472142D01*
X67039523Y-35329285D01*
X67087142Y-35138809D01*
X67087142Y-34757857D01*
X67039523Y-34662619D01*
X66991904Y-34615000D01*
X66896666Y-34567380D01*
X66706190Y-34567380D01*
X66610952Y-34615000D01*
X66563333Y-34662619D01*
X66515714Y-34757857D01*
X66515714Y-34995952D01*
X66563333Y-35091190D01*
X66610952Y-35138809D01*
X66706190Y-35186428D01*
X66896666Y-35186428D01*
X66991904Y-35138809D01*
X67039523Y-35091190D01*
X67087142Y-34995952D01*
D11*
X71600000Y-47850000D02*
X73300000Y-47850000D01*
X75600000Y-44750000D02*
X75600000Y-43850000D01*
X75600000Y-44750000D02*
X75600000Y-45650000D01*
X69400000Y-44750000D02*
X69400000Y-43850000D01*
X69400000Y-44750000D02*
X69400000Y-45650000D01*
X71600000Y-41650000D02*
X73400000Y-41650000D01*
D12*
X66490000Y-43587221D02*
X66490000Y-43912779D01*
X67510000Y-43587221D02*
X67510000Y-43912779D01*
X14880000Y-33687936D02*
X14880000Y-34892064D01*
X13060000Y-33687936D02*
X13060000Y-34892064D01*
X29335000Y-43652221D02*
X29335000Y-43977779D01*
X30355000Y-43652221D02*
X30355000Y-43977779D01*
D10*
X47410000Y-30900000D02*
X47410000Y-30925000D01*
X47410000Y-38950000D02*
X47410000Y-38925000D01*
X42760000Y-38950000D02*
X42760000Y-38925000D01*
X41685000Y-30850000D02*
X47410000Y-30850000D01*
X42760000Y-38950000D02*
X47410000Y-38950000D01*
D12*
X50954721Y-33530000D02*
X51280279Y-33530000D01*
X50954721Y-32510000D02*
X51280279Y-32510000D01*
X50954721Y-30922500D02*
X51280279Y-30922500D01*
X50954721Y-31942500D02*
X51280279Y-31942500D01*
X34415000Y-43652221D02*
X34415000Y-43977779D01*
X35435000Y-43652221D02*
X35435000Y-43977779D01*
X39495000Y-43652221D02*
X39495000Y-43977779D01*
X40515000Y-43652221D02*
X40515000Y-43977779D01*
X24255000Y-47787779D02*
X24255000Y-47462221D01*
X25275000Y-47787779D02*
X25275000Y-47462221D01*
X29335000Y-47787779D02*
X29335000Y-47462221D01*
X30355000Y-47787779D02*
X30355000Y-47462221D01*
X34415000Y-47787779D02*
X34415000Y-47462221D01*
X35435000Y-47787779D02*
X35435000Y-47462221D01*
X44575000Y-43652221D02*
X44575000Y-43977779D01*
X45595000Y-43652221D02*
X45595000Y-43977779D01*
X50675000Y-43652221D02*
X50675000Y-43977779D01*
X49655000Y-43652221D02*
X49655000Y-43977779D01*
X54735000Y-43652221D02*
X54735000Y-43977779D01*
X55755000Y-43652221D02*
X55755000Y-43977779D01*
X40515000Y-47787779D02*
X40515000Y-47462221D01*
X39495000Y-47787779D02*
X39495000Y-47462221D01*
X45595000Y-47787779D02*
X45595000Y-47462221D01*
X44575000Y-47787779D02*
X44575000Y-47462221D01*
X49655000Y-47787779D02*
X49655000Y-47462221D01*
X50675000Y-47787779D02*
X50675000Y-47462221D01*
X60835000Y-43652221D02*
X60835000Y-43977779D01*
X59815000Y-43652221D02*
X59815000Y-43977779D01*
X64895000Y-43652221D02*
X64895000Y-43977779D01*
X65915000Y-43652221D02*
X65915000Y-43977779D01*
X54735000Y-47787779D02*
X54735000Y-47462221D01*
X55755000Y-47787779D02*
X55755000Y-47462221D01*
X59815000Y-47787779D02*
X59815000Y-47462221D01*
X60835000Y-47787779D02*
X60835000Y-47462221D01*
X65330000Y-51440000D02*
X24570000Y-51440000D01*
X24570000Y-51440000D02*
X24570000Y-54100000D01*
X24570000Y-54100000D02*
X65330000Y-54100000D01*
X65330000Y-54100000D02*
X65330000Y-51440000D01*
X64380000Y-54100000D02*
X64380000Y-60100000D01*
X64380000Y-60100000D02*
X63620000Y-60100000D01*
X63620000Y-60100000D02*
X63620000Y-54100000D01*
X64320000Y-54100000D02*
X64320000Y-60100000D01*
X64200000Y-54100000D02*
X64200000Y-60100000D01*
X64080000Y-54100000D02*
X64080000Y-60100000D01*
X63960000Y-54100000D02*
X63960000Y-60100000D01*
X63840000Y-54100000D02*
X63840000Y-60100000D01*
X63720000Y-54100000D02*
X63720000Y-60100000D01*
X64380000Y-51110000D02*
X64380000Y-51440000D01*
X63620000Y-51110000D02*
X63620000Y-51440000D01*
X62730000Y-51440000D02*
X62730000Y-54100000D01*
X61840000Y-54100000D02*
X61840000Y-60100000D01*
X61840000Y-60100000D02*
X61080000Y-60100000D01*
X61080000Y-60100000D02*
X61080000Y-54100000D01*
X61840000Y-51042929D02*
X61840000Y-51440000D01*
X61080000Y-51042929D02*
X61080000Y-51440000D01*
X60190000Y-51440000D02*
X60190000Y-54100000D01*
X59300000Y-54100000D02*
X59300000Y-60100000D01*
X59300000Y-60100000D02*
X58540000Y-60100000D01*
X58540000Y-60100000D02*
X58540000Y-54100000D01*
X59300000Y-51042929D02*
X59300000Y-51440000D01*
X58540000Y-51042929D02*
X58540000Y-51440000D01*
X57650000Y-51440000D02*
X57650000Y-54100000D01*
X56760000Y-54100000D02*
X56760000Y-60100000D01*
X56760000Y-60100000D02*
X56000000Y-60100000D01*
X56000000Y-60100000D02*
X56000000Y-54100000D01*
X56760000Y-51042929D02*
X56760000Y-51440000D01*
X56000000Y-51042929D02*
X56000000Y-51440000D01*
X55110000Y-51440000D02*
X55110000Y-54100000D01*
X54220000Y-54100000D02*
X54220000Y-60100000D01*
X54220000Y-60100000D02*
X53460000Y-60100000D01*
X53460000Y-60100000D02*
X53460000Y-54100000D01*
X54220000Y-51042929D02*
X54220000Y-51440000D01*
X53460000Y-51042929D02*
X53460000Y-51440000D01*
X52570000Y-51440000D02*
X52570000Y-54100000D01*
X51680000Y-54100000D02*
X51680000Y-60100000D01*
X51680000Y-60100000D02*
X50920000Y-60100000D01*
X50920000Y-60100000D02*
X50920000Y-54100000D01*
X51680000Y-51042929D02*
X51680000Y-51440000D01*
X50920000Y-51042929D02*
X50920000Y-51440000D01*
X50030000Y-51440000D02*
X50030000Y-54100000D01*
X49140000Y-54100000D02*
X49140000Y-60100000D01*
X49140000Y-60100000D02*
X48380000Y-60100000D01*
X48380000Y-60100000D02*
X48380000Y-54100000D01*
X49140000Y-51042929D02*
X49140000Y-51440000D01*
X48380000Y-51042929D02*
X48380000Y-51440000D01*
X47490000Y-51440000D02*
X47490000Y-54100000D01*
X46600000Y-54100000D02*
X46600000Y-60100000D01*
X46600000Y-60100000D02*
X45840000Y-60100000D01*
X45840000Y-60100000D02*
X45840000Y-54100000D01*
X46600000Y-51042929D02*
X46600000Y-51440000D01*
X45840000Y-51042929D02*
X45840000Y-51440000D01*
X44950000Y-51440000D02*
X44950000Y-54100000D01*
X44060000Y-54100000D02*
X44060000Y-60100000D01*
X44060000Y-60100000D02*
X43300000Y-60100000D01*
X43300000Y-60100000D02*
X43300000Y-54100000D01*
X44060000Y-51042929D02*
X44060000Y-51440000D01*
X43300000Y-51042929D02*
X43300000Y-51440000D01*
X42410000Y-51440000D02*
X42410000Y-54100000D01*
X41520000Y-54100000D02*
X41520000Y-60100000D01*
X41520000Y-60100000D02*
X40760000Y-60100000D01*
X40760000Y-60100000D02*
X40760000Y-54100000D01*
X41520000Y-51042929D02*
X41520000Y-51440000D01*
X40760000Y-51042929D02*
X40760000Y-51440000D01*
X39870000Y-51440000D02*
X39870000Y-54100000D01*
X38980000Y-54100000D02*
X38980000Y-60100000D01*
X38980000Y-60100000D02*
X38220000Y-60100000D01*
X38220000Y-60100000D02*
X38220000Y-54100000D01*
X38980000Y-51042929D02*
X38980000Y-51440000D01*
X38220000Y-51042929D02*
X38220000Y-51440000D01*
X37330000Y-51440000D02*
X37330000Y-54100000D01*
X36440000Y-54100000D02*
X36440000Y-60100000D01*
X36440000Y-60100000D02*
X35680000Y-60100000D01*
X35680000Y-60100000D02*
X35680000Y-54100000D01*
X36440000Y-51042929D02*
X36440000Y-51440000D01*
X35680000Y-51042929D02*
X35680000Y-51440000D01*
X34790000Y-51440000D02*
X34790000Y-54100000D01*
X33900000Y-54100000D02*
X33900000Y-60100000D01*
X33900000Y-60100000D02*
X33140000Y-60100000D01*
X33140000Y-60100000D02*
X33140000Y-54100000D01*
X33900000Y-51042929D02*
X33900000Y-51440000D01*
X33140000Y-51042929D02*
X33140000Y-51440000D01*
X32250000Y-51440000D02*
X32250000Y-54100000D01*
X31360000Y-54100000D02*
X31360000Y-60100000D01*
X31360000Y-60100000D02*
X30600000Y-60100000D01*
X30600000Y-60100000D02*
X30600000Y-54100000D01*
X31360000Y-51042929D02*
X31360000Y-51440000D01*
X30600000Y-51042929D02*
X30600000Y-51440000D01*
X29710000Y-51440000D02*
X29710000Y-54100000D01*
X28820000Y-54100000D02*
X28820000Y-60100000D01*
X28820000Y-60100000D02*
X28060000Y-60100000D01*
X28060000Y-60100000D02*
X28060000Y-54100000D01*
X28820000Y-51042929D02*
X28820000Y-51440000D01*
X28060000Y-51042929D02*
X28060000Y-51440000D01*
X27170000Y-51440000D02*
X27170000Y-54100000D01*
X26280000Y-54100000D02*
X26280000Y-60100000D01*
X26280000Y-60100000D02*
X25520000Y-60100000D01*
X25520000Y-60100000D02*
X25520000Y-54100000D01*
X26280000Y-51042929D02*
X26280000Y-51440000D01*
X25520000Y-51042929D02*
X25520000Y-51440000D01*
X64000000Y-48730000D02*
X65270000Y-48730000D01*
X65270000Y-48730000D02*
X65270000Y-50000000D01*
X69662779Y-39510000D02*
X69337221Y-39510000D01*
X69662779Y-38490000D02*
X69337221Y-38490000D01*
X69662779Y-35990000D02*
X69337221Y-35990000D01*
X69662779Y-37010000D02*
X69337221Y-37010000D01*
X69662779Y-34510000D02*
X69337221Y-34510000D01*
X69662779Y-33490000D02*
X69337221Y-33490000D01*
X38889721Y-33530000D02*
X39215279Y-33530000D01*
X38889721Y-32510000D02*
X39215279Y-32510000D01*
X28915000Y-45720000D02*
X28915000Y-42795000D01*
X28915000Y-45720000D02*
X28915000Y-47220000D01*
X25695000Y-45720000D02*
X25695000Y-44220000D01*
X25695000Y-45720000D02*
X25695000Y-47220000D01*
X30775000Y-45720000D02*
X30775000Y-47220000D01*
X30775000Y-45720000D02*
X30775000Y-44220000D01*
X33995000Y-45720000D02*
X33995000Y-47220000D01*
X33995000Y-45720000D02*
X33995000Y-42795000D01*
X35855000Y-45720000D02*
X35855000Y-47220000D01*
X35855000Y-45720000D02*
X35855000Y-44220000D01*
X39075000Y-45720000D02*
X39075000Y-47220000D01*
X39075000Y-45720000D02*
X39075000Y-42795000D01*
X44155000Y-45720000D02*
X44155000Y-42795000D01*
X44155000Y-45720000D02*
X44155000Y-47220000D01*
X40935000Y-45720000D02*
X40935000Y-44220000D01*
X40935000Y-45720000D02*
X40935000Y-47220000D01*
X46015000Y-45720000D02*
X46015000Y-47220000D01*
X46015000Y-45720000D02*
X46015000Y-44220000D01*
X49235000Y-45720000D02*
X49235000Y-47220000D01*
X49235000Y-45720000D02*
X49235000Y-42795000D01*
X51095000Y-45720000D02*
X51095000Y-47220000D01*
X51095000Y-45720000D02*
X51095000Y-44220000D01*
X54315000Y-45720000D02*
X54315000Y-47220000D01*
X54315000Y-45720000D02*
X54315000Y-42795000D01*
X59395000Y-45720000D02*
X59395000Y-42795000D01*
X59395000Y-45720000D02*
X59395000Y-47220000D01*
X56175000Y-45720000D02*
X56175000Y-44220000D01*
X56175000Y-45720000D02*
X56175000Y-47220000D01*
X64475000Y-45720000D02*
X64475000Y-42795000D01*
X64475000Y-45720000D02*
X64475000Y-47220000D01*
X61255000Y-45720000D02*
X61255000Y-44220000D01*
X61255000Y-45720000D02*
X61255000Y-47220000D01*
X73300000Y-40000000D02*
G75*
G02X72600000Y-39300000I0J700000D01*
G01*
X72600000Y-38700000D02*
G75*
G02X73300000Y-38000000I700000J0D01*
G01*
X74700000Y-38000000D02*
G75*
G02X75400000Y-38700000I0J-700000D01*
G01*
X75400000Y-39300000D02*
G75*
G02X74700000Y-40000000I-700000J0D01*
G01*
X75400000Y-38700000D02*
X75400000Y-39300000D01*
X73300000Y-38000000D02*
X74700000Y-38000000D01*
X72600000Y-39300000D02*
X72600000Y-38700000D01*
X74700000Y-40000000D02*
X73300000Y-40000000D01*
X74700000Y-37500000D02*
X73300000Y-37500000D01*
X72600000Y-36800000D02*
X72600000Y-36200000D01*
X73300000Y-35500000D02*
X74700000Y-35500000D01*
X75400000Y-36200000D02*
X75400000Y-36800000D01*
X75400000Y-36800000D02*
G75*
G02X74700000Y-37500000I-700000J0D01*
G01*
X74700000Y-35500000D02*
G75*
G02X75400000Y-36200000I0J-700000D01*
G01*
X72600000Y-36200000D02*
G75*
G02X73300000Y-35500000I700000J0D01*
G01*
X73300000Y-37500000D02*
G75*
G02X72600000Y-36800000I0J700000D01*
G01*
X73300000Y-35000000D02*
G75*
G02X72600000Y-34300000I0J700000D01*
G01*
X72600000Y-33700000D02*
G75*
G02X73300000Y-33000000I700000J0D01*
G01*
X74700000Y-33000000D02*
G75*
G02X75400000Y-33700000I0J-700000D01*
G01*
X75400000Y-34300000D02*
G75*
G02X74700000Y-35000000I-700000J0D01*
G01*
X75400000Y-33700000D02*
X75400000Y-34300000D01*
X73300000Y-33000000D02*
X74700000Y-33000000D01*
X72600000Y-34300000D02*
X72600000Y-33700000D01*
X74700000Y-35000000D02*
X73300000Y-35000000D01*
X29335000Y-39842221D02*
X29335000Y-40167779D01*
X30355000Y-39842221D02*
X30355000Y-40167779D01*
X25275000Y-39842221D02*
X25275000Y-40167779D01*
X24255000Y-39842221D02*
X24255000Y-40167779D01*
X32510000Y-41112221D02*
X32510000Y-41437779D01*
X33530000Y-41112221D02*
X33530000Y-41437779D01*
X32260000Y-41112221D02*
X32260000Y-41437779D01*
X31240000Y-41112221D02*
X31240000Y-41437779D01*
X37590000Y-41112221D02*
X37590000Y-41437779D01*
X38610000Y-41112221D02*
X38610000Y-41437779D01*
X37340000Y-41112221D02*
X37340000Y-41437779D01*
X36320000Y-41112221D02*
X36320000Y-41437779D01*
X43690000Y-41112221D02*
X43690000Y-41437779D01*
X42670000Y-41112221D02*
X42670000Y-41437779D01*
X41400000Y-41112221D02*
X41400000Y-41437779D01*
X42420000Y-41112221D02*
X42420000Y-41437779D01*
X47750000Y-41112221D02*
X47750000Y-41437779D01*
X48770000Y-41112221D02*
X48770000Y-41437779D01*
X46480000Y-41112221D02*
X46480000Y-41437779D01*
X47500000Y-41112221D02*
X47500000Y-41437779D01*
X53850000Y-41112221D02*
X53850000Y-41437779D01*
X52830000Y-41112221D02*
X52830000Y-41437779D01*
X52580000Y-41112221D02*
X52580000Y-41437779D01*
X51560000Y-41112221D02*
X51560000Y-41437779D01*
X57910000Y-41112221D02*
X57910000Y-41437779D01*
X58930000Y-41112221D02*
X58930000Y-41437779D01*
X57660000Y-41112221D02*
X57660000Y-41437779D01*
X56640000Y-41112221D02*
X56640000Y-41437779D01*
X62990000Y-41112221D02*
X62990000Y-41437779D01*
X64010000Y-41112221D02*
X64010000Y-41437779D01*
X62740000Y-41112221D02*
X62740000Y-41437779D01*
X61720000Y-41112221D02*
X61720000Y-41437779D01*
X25975000Y-41017500D02*
X28635000Y-41017500D01*
X25975000Y-33337500D02*
X25975000Y-41017500D01*
X28635000Y-33337500D02*
X28635000Y-41017500D01*
X25975000Y-33337500D02*
X28635000Y-33337500D01*
X25975000Y-32067500D02*
X25975000Y-30737500D01*
X25975000Y-30737500D02*
X27305000Y-30737500D01*
X25040000Y-34892064D02*
X25040000Y-33687936D01*
X23220000Y-34892064D02*
X23220000Y-33687936D01*
X24255000Y-43977779D02*
X24255000Y-43652221D01*
X25275000Y-43977779D02*
X25275000Y-43652221D01*
D11*
X18603800Y-47829400D02*
X16803800Y-47829400D01*
X20803800Y-44729400D02*
X20803800Y-43829400D01*
X20803800Y-44729400D02*
X20803800Y-45629400D01*
X14603800Y-44729400D02*
X14603800Y-43829400D01*
X14603800Y-44729400D02*
X14603800Y-45629400D01*
X18603800Y-41629400D02*
X16903800Y-41629400D01*
X15775000Y-37170000D02*
X15775000Y-37645000D01*
X15775000Y-37645000D02*
X16075000Y-37970000D01*
X16075000Y-37970000D02*
X16075000Y-38165000D01*
X22325000Y-37495000D02*
X22325000Y-37970000D01*
X22325000Y-37970000D02*
X21875000Y-37970000D01*
X16275000Y-34420000D02*
X15775000Y-34420000D01*
X15775000Y-34420000D02*
X15775000Y-34820000D01*
X21950000Y-34420000D02*
X22325000Y-34420000D01*
X22325000Y-34420000D02*
X22325000Y-34720000D01*
D10*
X76904761Y-45511904D02*
X76952380Y-45369047D01*
X76952380Y-45130952D01*
X76904761Y-45035714D01*
X76857142Y-44988095D01*
X76761904Y-44940476D01*
X76666666Y-44940476D01*
X76571428Y-44988095D01*
X76523809Y-45035714D01*
X76476190Y-45130952D01*
X76428571Y-45321428D01*
X76380952Y-45416666D01*
X76333333Y-45464285D01*
X76238095Y-45511904D01*
X76142857Y-45511904D01*
X76047619Y-45464285D01*
X76000000Y-45416666D01*
X75952380Y-45321428D01*
X75952380Y-45083333D01*
X76000000Y-44940476D01*
X76047619Y-44559523D02*
X76000000Y-44511904D01*
X75952380Y-44416666D01*
X75952380Y-44178571D01*
X76000000Y-44083333D01*
X76047619Y-44035714D01*
X76142857Y-43988095D01*
X76238095Y-43988095D01*
X76380952Y-44035714D01*
X76952380Y-44607142D01*
X76952380Y-43988095D01*
X67452380Y-47392857D02*
X66976190Y-47726190D01*
X67452380Y-47964285D02*
X66452380Y-47964285D01*
X66452380Y-47583333D01*
X66500000Y-47488095D01*
X66547619Y-47440476D01*
X66642857Y-47392857D01*
X66785714Y-47392857D01*
X66880952Y-47440476D01*
X66928571Y-47488095D01*
X66976190Y-47583333D01*
X66976190Y-47964285D01*
X66547619Y-47011904D02*
X66500000Y-46964285D01*
X66452380Y-46869047D01*
X66452380Y-46630952D01*
X66500000Y-46535714D01*
X66547619Y-46488095D01*
X66642857Y-46440476D01*
X66738095Y-46440476D01*
X66880952Y-46488095D01*
X67452380Y-47059523D01*
X67452380Y-46440476D01*
X66547619Y-46059523D02*
X66500000Y-46011904D01*
X66452380Y-45916666D01*
X66452380Y-45678571D01*
X66500000Y-45583333D01*
X66547619Y-45535714D01*
X66642857Y-45488095D01*
X66738095Y-45488095D01*
X66880952Y-45535714D01*
X67452380Y-46107142D01*
X67452380Y-45488095D01*
X13327142Y-31789642D02*
X13279523Y-31837261D01*
X13136666Y-31884880D01*
X13041428Y-31884880D01*
X12898571Y-31837261D01*
X12803333Y-31742023D01*
X12755714Y-31646785D01*
X12708095Y-31456309D01*
X12708095Y-31313452D01*
X12755714Y-31122976D01*
X12803333Y-31027738D01*
X12898571Y-30932500D01*
X13041428Y-30884880D01*
X13136666Y-30884880D01*
X13279523Y-30932500D01*
X13327142Y-30980119D01*
X13708095Y-30980119D02*
X13755714Y-30932500D01*
X13850952Y-30884880D01*
X14089047Y-30884880D01*
X14184285Y-30932500D01*
X14231904Y-30980119D01*
X14279523Y-31075357D01*
X14279523Y-31170595D01*
X14231904Y-31313452D01*
X13660476Y-31884880D01*
X14279523Y-31884880D01*
X14898571Y-30884880D02*
X14993809Y-30884880D01*
X15089047Y-30932500D01*
X15136666Y-30980119D01*
X15184285Y-31075357D01*
X15231904Y-31265833D01*
X15231904Y-31503928D01*
X15184285Y-31694404D01*
X15136666Y-31789642D01*
X15089047Y-31837261D01*
X14993809Y-31884880D01*
X14898571Y-31884880D01*
X14803333Y-31837261D01*
X14755714Y-31789642D01*
X14708095Y-31694404D01*
X14660476Y-31503928D01*
X14660476Y-31265833D01*
X14708095Y-31075357D01*
X14755714Y-30980119D01*
X14803333Y-30932500D01*
X14898571Y-30884880D01*
X29678333Y-42267142D02*
X29630714Y-42314761D01*
X29487857Y-42362380D01*
X29392619Y-42362380D01*
X29249761Y-42314761D01*
X29154523Y-42219523D01*
X29106904Y-42124285D01*
X29059285Y-41933809D01*
X29059285Y-41790952D01*
X29106904Y-41600476D01*
X29154523Y-41505238D01*
X29249761Y-41410000D01*
X29392619Y-41362380D01*
X29487857Y-41362380D01*
X29630714Y-41410000D01*
X29678333Y-41457619D01*
X30011666Y-41362380D02*
X30630714Y-41362380D01*
X30297380Y-41743333D01*
X30440238Y-41743333D01*
X30535476Y-41790952D01*
X30583095Y-41838571D01*
X30630714Y-41933809D01*
X30630714Y-42171904D01*
X30583095Y-42267142D01*
X30535476Y-42314761D01*
X30440238Y-42362380D01*
X30154523Y-42362380D01*
X30059285Y-42314761D01*
X30011666Y-42267142D01*
X39878095Y-30884880D02*
X39878095Y-31694404D01*
X39925714Y-31789642D01*
X39973333Y-31837261D01*
X40068571Y-31884880D01*
X40259047Y-31884880D01*
X40354285Y-31837261D01*
X40401904Y-31789642D01*
X40449523Y-31694404D01*
X40449523Y-30884880D01*
X41449523Y-31884880D02*
X40878095Y-31884880D01*
X41163809Y-31884880D02*
X41163809Y-30884880D01*
X41068571Y-31027738D01*
X40973333Y-31122976D01*
X40878095Y-31170595D01*
X53490833Y-33377142D02*
X53443214Y-33424761D01*
X53300357Y-33472380D01*
X53205119Y-33472380D01*
X53062261Y-33424761D01*
X52967023Y-33329523D01*
X52919404Y-33234285D01*
X52871785Y-33043809D01*
X52871785Y-32900952D01*
X52919404Y-32710476D01*
X52967023Y-32615238D01*
X53062261Y-32520000D01*
X53205119Y-32472380D01*
X53300357Y-32472380D01*
X53443214Y-32520000D01*
X53490833Y-32567619D01*
X54443214Y-33472380D02*
X53871785Y-33472380D01*
X54157500Y-33472380D02*
X54157500Y-32472380D01*
X54062261Y-32615238D01*
X53967023Y-32710476D01*
X53871785Y-32758095D01*
X53490833Y-31789642D02*
X53443214Y-31837261D01*
X53300357Y-31884880D01*
X53205119Y-31884880D01*
X53062261Y-31837261D01*
X52967023Y-31742023D01*
X52919404Y-31646785D01*
X52871785Y-31456309D01*
X52871785Y-31313452D01*
X52919404Y-31122976D01*
X52967023Y-31027738D01*
X53062261Y-30932500D01*
X53205119Y-30884880D01*
X53300357Y-30884880D01*
X53443214Y-30932500D01*
X53490833Y-30980119D01*
X53871785Y-30980119D02*
X53919404Y-30932500D01*
X54014642Y-30884880D01*
X54252738Y-30884880D01*
X54347976Y-30932500D01*
X54395595Y-30980119D01*
X54443214Y-31075357D01*
X54443214Y-31170595D01*
X54395595Y-31313452D01*
X53824166Y-31884880D01*
X54443214Y-31884880D01*
X34758333Y-42267142D02*
X34710714Y-42314761D01*
X34567857Y-42362380D01*
X34472619Y-42362380D01*
X34329761Y-42314761D01*
X34234523Y-42219523D01*
X34186904Y-42124285D01*
X34139285Y-41933809D01*
X34139285Y-41790952D01*
X34186904Y-41600476D01*
X34234523Y-41505238D01*
X34329761Y-41410000D01*
X34472619Y-41362380D01*
X34567857Y-41362380D01*
X34710714Y-41410000D01*
X34758333Y-41457619D01*
X35615476Y-41695714D02*
X35615476Y-42362380D01*
X35377380Y-41314761D02*
X35139285Y-42029047D01*
X35758333Y-42029047D01*
X39838333Y-42267142D02*
X39790714Y-42314761D01*
X39647857Y-42362380D01*
X39552619Y-42362380D01*
X39409761Y-42314761D01*
X39314523Y-42219523D01*
X39266904Y-42124285D01*
X39219285Y-41933809D01*
X39219285Y-41790952D01*
X39266904Y-41600476D01*
X39314523Y-41505238D01*
X39409761Y-41410000D01*
X39552619Y-41362380D01*
X39647857Y-41362380D01*
X39790714Y-41410000D01*
X39838333Y-41457619D01*
X40743095Y-41362380D02*
X40266904Y-41362380D01*
X40219285Y-41838571D01*
X40266904Y-41790952D01*
X40362142Y-41743333D01*
X40600238Y-41743333D01*
X40695476Y-41790952D01*
X40743095Y-41838571D01*
X40790714Y-41933809D01*
X40790714Y-42171904D01*
X40743095Y-42267142D01*
X40695476Y-42314761D01*
X40600238Y-42362380D01*
X40362142Y-42362380D01*
X40266904Y-42314761D01*
X40219285Y-42267142D01*
X24403333Y-51797142D02*
X24355714Y-51844761D01*
X24212857Y-51892380D01*
X24117619Y-51892380D01*
X23974761Y-51844761D01*
X23879523Y-51749523D01*
X23831904Y-51654285D01*
X23784285Y-51463809D01*
X23784285Y-51320952D01*
X23831904Y-51130476D01*
X23879523Y-51035238D01*
X23974761Y-50940000D01*
X24117619Y-50892380D01*
X24212857Y-50892380D01*
X24355714Y-50940000D01*
X24403333Y-50987619D01*
X25260476Y-50892380D02*
X25070000Y-50892380D01*
X24974761Y-50940000D01*
X24927142Y-50987619D01*
X24831904Y-51130476D01*
X24784285Y-51320952D01*
X24784285Y-51701904D01*
X24831904Y-51797142D01*
X24879523Y-51844761D01*
X24974761Y-51892380D01*
X25165238Y-51892380D01*
X25260476Y-51844761D01*
X25308095Y-51797142D01*
X25355714Y-51701904D01*
X25355714Y-51463809D01*
X25308095Y-51368571D01*
X25260476Y-51320952D01*
X25165238Y-51273333D01*
X24974761Y-51273333D01*
X24879523Y-51320952D01*
X24831904Y-51368571D01*
X24784285Y-51463809D01*
X29543333Y-51797142D02*
X29495714Y-51844761D01*
X29352857Y-51892380D01*
X29257619Y-51892380D01*
X29114761Y-51844761D01*
X29019523Y-51749523D01*
X28971904Y-51654285D01*
X28924285Y-51463809D01*
X28924285Y-51320952D01*
X28971904Y-51130476D01*
X29019523Y-51035238D01*
X29114761Y-50940000D01*
X29257619Y-50892380D01*
X29352857Y-50892380D01*
X29495714Y-50940000D01*
X29543333Y-50987619D01*
X29876666Y-50892380D02*
X30543333Y-50892380D01*
X30114761Y-51892380D01*
X34623333Y-51797142D02*
X34575714Y-51844761D01*
X34432857Y-51892380D01*
X34337619Y-51892380D01*
X34194761Y-51844761D01*
X34099523Y-51749523D01*
X34051904Y-51654285D01*
X34004285Y-51463809D01*
X34004285Y-51320952D01*
X34051904Y-51130476D01*
X34099523Y-51035238D01*
X34194761Y-50940000D01*
X34337619Y-50892380D01*
X34432857Y-50892380D01*
X34575714Y-50940000D01*
X34623333Y-50987619D01*
X35194761Y-51320952D02*
X35099523Y-51273333D01*
X35051904Y-51225714D01*
X35004285Y-51130476D01*
X35004285Y-51082857D01*
X35051904Y-50987619D01*
X35099523Y-50940000D01*
X35194761Y-50892380D01*
X35385238Y-50892380D01*
X35480476Y-50940000D01*
X35528095Y-50987619D01*
X35575714Y-51082857D01*
X35575714Y-51130476D01*
X35528095Y-51225714D01*
X35480476Y-51273333D01*
X35385238Y-51320952D01*
X35194761Y-51320952D01*
X35099523Y-51368571D01*
X35051904Y-51416190D01*
X35004285Y-51511428D01*
X35004285Y-51701904D01*
X35051904Y-51797142D01*
X35099523Y-51844761D01*
X35194761Y-51892380D01*
X35385238Y-51892380D01*
X35480476Y-51844761D01*
X35528095Y-51797142D01*
X35575714Y-51701904D01*
X35575714Y-51511428D01*
X35528095Y-51416190D01*
X35480476Y-51368571D01*
X35385238Y-51320952D01*
X44918333Y-42267142D02*
X44870714Y-42314761D01*
X44727857Y-42362380D01*
X44632619Y-42362380D01*
X44489761Y-42314761D01*
X44394523Y-42219523D01*
X44346904Y-42124285D01*
X44299285Y-41933809D01*
X44299285Y-41790952D01*
X44346904Y-41600476D01*
X44394523Y-41505238D01*
X44489761Y-41410000D01*
X44632619Y-41362380D01*
X44727857Y-41362380D01*
X44870714Y-41410000D01*
X44918333Y-41457619D01*
X45394523Y-42362380D02*
X45585000Y-42362380D01*
X45680238Y-42314761D01*
X45727857Y-42267142D01*
X45823095Y-42124285D01*
X45870714Y-41933809D01*
X45870714Y-41552857D01*
X45823095Y-41457619D01*
X45775476Y-41410000D01*
X45680238Y-41362380D01*
X45489761Y-41362380D01*
X45394523Y-41410000D01*
X45346904Y-41457619D01*
X45299285Y-41552857D01*
X45299285Y-41790952D01*
X45346904Y-41886190D01*
X45394523Y-41933809D01*
X45489761Y-41981428D01*
X45680238Y-41981428D01*
X45775476Y-41933809D01*
X45823095Y-41886190D01*
X45870714Y-41790952D01*
X49522142Y-42267142D02*
X49474523Y-42314761D01*
X49331666Y-42362380D01*
X49236428Y-42362380D01*
X49093571Y-42314761D01*
X48998333Y-42219523D01*
X48950714Y-42124285D01*
X48903095Y-41933809D01*
X48903095Y-41790952D01*
X48950714Y-41600476D01*
X48998333Y-41505238D01*
X49093571Y-41410000D01*
X49236428Y-41362380D01*
X49331666Y-41362380D01*
X49474523Y-41410000D01*
X49522142Y-41457619D01*
X50474523Y-42362380D02*
X49903095Y-42362380D01*
X50188809Y-42362380D02*
X50188809Y-41362380D01*
X50093571Y-41505238D01*
X49998333Y-41600476D01*
X49903095Y-41648095D01*
X51093571Y-41362380D02*
X51188809Y-41362380D01*
X51284047Y-41410000D01*
X51331666Y-41457619D01*
X51379285Y-41552857D01*
X51426904Y-41743333D01*
X51426904Y-41981428D01*
X51379285Y-42171904D01*
X51331666Y-42267142D01*
X51284047Y-42314761D01*
X51188809Y-42362380D01*
X51093571Y-42362380D01*
X50998333Y-42314761D01*
X50950714Y-42267142D01*
X50903095Y-42171904D01*
X50855476Y-41981428D01*
X50855476Y-41743333D01*
X50903095Y-41552857D01*
X50950714Y-41457619D01*
X50998333Y-41410000D01*
X51093571Y-41362380D01*
X54602142Y-42267142D02*
X54554523Y-42314761D01*
X54411666Y-42362380D01*
X54316428Y-42362380D01*
X54173571Y-42314761D01*
X54078333Y-42219523D01*
X54030714Y-42124285D01*
X53983095Y-41933809D01*
X53983095Y-41790952D01*
X54030714Y-41600476D01*
X54078333Y-41505238D01*
X54173571Y-41410000D01*
X54316428Y-41362380D01*
X54411666Y-41362380D01*
X54554523Y-41410000D01*
X54602142Y-41457619D01*
X55554523Y-42362380D02*
X54983095Y-42362380D01*
X55268809Y-42362380D02*
X55268809Y-41362380D01*
X55173571Y-41505238D01*
X55078333Y-41600476D01*
X54983095Y-41648095D01*
X56506904Y-42362380D02*
X55935476Y-42362380D01*
X56221190Y-42362380D02*
X56221190Y-41362380D01*
X56125952Y-41505238D01*
X56030714Y-41600476D01*
X55935476Y-41648095D01*
X39227142Y-51797142D02*
X39179523Y-51844761D01*
X39036666Y-51892380D01*
X38941428Y-51892380D01*
X38798571Y-51844761D01*
X38703333Y-51749523D01*
X38655714Y-51654285D01*
X38608095Y-51463809D01*
X38608095Y-51320952D01*
X38655714Y-51130476D01*
X38703333Y-51035238D01*
X38798571Y-50940000D01*
X38941428Y-50892380D01*
X39036666Y-50892380D01*
X39179523Y-50940000D01*
X39227142Y-50987619D01*
X40179523Y-51892380D02*
X39608095Y-51892380D01*
X39893809Y-51892380D02*
X39893809Y-50892380D01*
X39798571Y-51035238D01*
X39703333Y-51130476D01*
X39608095Y-51178095D01*
X40560476Y-50987619D02*
X40608095Y-50940000D01*
X40703333Y-50892380D01*
X40941428Y-50892380D01*
X41036666Y-50940000D01*
X41084285Y-50987619D01*
X41131904Y-51082857D01*
X41131904Y-51178095D01*
X41084285Y-51320952D01*
X40512857Y-51892380D01*
X41131904Y-51892380D01*
X44307142Y-51797142D02*
X44259523Y-51844761D01*
X44116666Y-51892380D01*
X44021428Y-51892380D01*
X43878571Y-51844761D01*
X43783333Y-51749523D01*
X43735714Y-51654285D01*
X43688095Y-51463809D01*
X43688095Y-51320952D01*
X43735714Y-51130476D01*
X43783333Y-51035238D01*
X43878571Y-50940000D01*
X44021428Y-50892380D01*
X44116666Y-50892380D01*
X44259523Y-50940000D01*
X44307142Y-50987619D01*
X45259523Y-51892380D02*
X44688095Y-51892380D01*
X44973809Y-51892380D02*
X44973809Y-50892380D01*
X44878571Y-51035238D01*
X44783333Y-51130476D01*
X44688095Y-51178095D01*
X45592857Y-50892380D02*
X46211904Y-50892380D01*
X45878571Y-51273333D01*
X46021428Y-51273333D01*
X46116666Y-51320952D01*
X46164285Y-51368571D01*
X46211904Y-51463809D01*
X46211904Y-51701904D01*
X46164285Y-51797142D01*
X46116666Y-51844761D01*
X46021428Y-51892380D01*
X45735714Y-51892380D01*
X45640476Y-51844761D01*
X45592857Y-51797142D01*
X49387142Y-51797142D02*
X49339523Y-51844761D01*
X49196666Y-51892380D01*
X49101428Y-51892380D01*
X48958571Y-51844761D01*
X48863333Y-51749523D01*
X48815714Y-51654285D01*
X48768095Y-51463809D01*
X48768095Y-51320952D01*
X48815714Y-51130476D01*
X48863333Y-51035238D01*
X48958571Y-50940000D01*
X49101428Y-50892380D01*
X49196666Y-50892380D01*
X49339523Y-50940000D01*
X49387142Y-50987619D01*
X50339523Y-51892380D02*
X49768095Y-51892380D01*
X50053809Y-51892380D02*
X50053809Y-50892380D01*
X49958571Y-51035238D01*
X49863333Y-51130476D01*
X49768095Y-51178095D01*
X51196666Y-51225714D02*
X51196666Y-51892380D01*
X50958571Y-50844761D02*
X50720476Y-51559047D01*
X51339523Y-51559047D01*
X59682142Y-42267142D02*
X59634523Y-42314761D01*
X59491666Y-42362380D01*
X59396428Y-42362380D01*
X59253571Y-42314761D01*
X59158333Y-42219523D01*
X59110714Y-42124285D01*
X59063095Y-41933809D01*
X59063095Y-41790952D01*
X59110714Y-41600476D01*
X59158333Y-41505238D01*
X59253571Y-41410000D01*
X59396428Y-41362380D01*
X59491666Y-41362380D01*
X59634523Y-41410000D01*
X59682142Y-41457619D01*
X60634523Y-42362380D02*
X60063095Y-42362380D01*
X60348809Y-42362380D02*
X60348809Y-41362380D01*
X60253571Y-41505238D01*
X60158333Y-41600476D01*
X60063095Y-41648095D01*
X61539285Y-41362380D02*
X61063095Y-41362380D01*
X61015476Y-41838571D01*
X61063095Y-41790952D01*
X61158333Y-41743333D01*
X61396428Y-41743333D01*
X61491666Y-41790952D01*
X61539285Y-41838571D01*
X61586904Y-41933809D01*
X61586904Y-42171904D01*
X61539285Y-42267142D01*
X61491666Y-42314761D01*
X61396428Y-42362380D01*
X61158333Y-42362380D01*
X61063095Y-42314761D01*
X61015476Y-42267142D01*
X64762142Y-42267142D02*
X64714523Y-42314761D01*
X64571666Y-42362380D01*
X64476428Y-42362380D01*
X64333571Y-42314761D01*
X64238333Y-42219523D01*
X64190714Y-42124285D01*
X64143095Y-41933809D01*
X64143095Y-41790952D01*
X64190714Y-41600476D01*
X64238333Y-41505238D01*
X64333571Y-41410000D01*
X64476428Y-41362380D01*
X64571666Y-41362380D01*
X64714523Y-41410000D01*
X64762142Y-41457619D01*
X65714523Y-42362380D02*
X65143095Y-42362380D01*
X65428809Y-42362380D02*
X65428809Y-41362380D01*
X65333571Y-41505238D01*
X65238333Y-41600476D01*
X65143095Y-41648095D01*
X66571666Y-41362380D02*
X66381190Y-41362380D01*
X66285952Y-41410000D01*
X66238333Y-41457619D01*
X66143095Y-41600476D01*
X66095476Y-41790952D01*
X66095476Y-42171904D01*
X66143095Y-42267142D01*
X66190714Y-42314761D01*
X66285952Y-42362380D01*
X66476428Y-42362380D01*
X66571666Y-42314761D01*
X66619285Y-42267142D01*
X66666904Y-42171904D01*
X66666904Y-41933809D01*
X66619285Y-41838571D01*
X66571666Y-41790952D01*
X66476428Y-41743333D01*
X66285952Y-41743333D01*
X66190714Y-41790952D01*
X66143095Y-41838571D01*
X66095476Y-41933809D01*
X54467142Y-51797142D02*
X54419523Y-51844761D01*
X54276666Y-51892380D01*
X54181428Y-51892380D01*
X54038571Y-51844761D01*
X53943333Y-51749523D01*
X53895714Y-51654285D01*
X53848095Y-51463809D01*
X53848095Y-51320952D01*
X53895714Y-51130476D01*
X53943333Y-51035238D01*
X54038571Y-50940000D01*
X54181428Y-50892380D01*
X54276666Y-50892380D01*
X54419523Y-50940000D01*
X54467142Y-50987619D01*
X55419523Y-51892380D02*
X54848095Y-51892380D01*
X55133809Y-51892380D02*
X55133809Y-50892380D01*
X55038571Y-51035238D01*
X54943333Y-51130476D01*
X54848095Y-51178095D01*
X55752857Y-50892380D02*
X56419523Y-50892380D01*
X55990952Y-51892380D01*
X59547142Y-51797142D02*
X59499523Y-51844761D01*
X59356666Y-51892380D01*
X59261428Y-51892380D01*
X59118571Y-51844761D01*
X59023333Y-51749523D01*
X58975714Y-51654285D01*
X58928095Y-51463809D01*
X58928095Y-51320952D01*
X58975714Y-51130476D01*
X59023333Y-51035238D01*
X59118571Y-50940000D01*
X59261428Y-50892380D01*
X59356666Y-50892380D01*
X59499523Y-50940000D01*
X59547142Y-50987619D01*
X60499523Y-51892380D02*
X59928095Y-51892380D01*
X60213809Y-51892380D02*
X60213809Y-50892380D01*
X60118571Y-51035238D01*
X60023333Y-51130476D01*
X59928095Y-51178095D01*
X61070952Y-51320952D02*
X60975714Y-51273333D01*
X60928095Y-51225714D01*
X60880476Y-51130476D01*
X60880476Y-51082857D01*
X60928095Y-50987619D01*
X60975714Y-50940000D01*
X61070952Y-50892380D01*
X61261428Y-50892380D01*
X61356666Y-50940000D01*
X61404285Y-50987619D01*
X61451904Y-51082857D01*
X61451904Y-51130476D01*
X61404285Y-51225714D01*
X61356666Y-51273333D01*
X61261428Y-51320952D01*
X61070952Y-51320952D01*
X60975714Y-51368571D01*
X60928095Y-51416190D01*
X60880476Y-51511428D01*
X60880476Y-51701904D01*
X60928095Y-51797142D01*
X60975714Y-51844761D01*
X61070952Y-51892380D01*
X61261428Y-51892380D01*
X61356666Y-51844761D01*
X61404285Y-51797142D01*
X61451904Y-51701904D01*
X61451904Y-51511428D01*
X61404285Y-51416190D01*
X61356666Y-51368571D01*
X61261428Y-51320952D01*
X66341666Y-52474880D02*
X66341666Y-53189166D01*
X66294047Y-53332023D01*
X66198809Y-53427261D01*
X66055952Y-53474880D01*
X65960714Y-53474880D01*
X66722619Y-52474880D02*
X67341666Y-52474880D01*
X67008333Y-52855833D01*
X67151190Y-52855833D01*
X67246428Y-52903452D01*
X67294047Y-52951071D01*
X67341666Y-53046309D01*
X67341666Y-53284404D01*
X67294047Y-53379642D01*
X67246428Y-53427261D01*
X67151190Y-53474880D01*
X66865476Y-53474880D01*
X66770238Y-53427261D01*
X66722619Y-53379642D01*
X72202380Y-39166666D02*
X71726190Y-39500000D01*
X72202380Y-39738095D02*
X71202380Y-39738095D01*
X71202380Y-39357142D01*
X71250000Y-39261904D01*
X71297619Y-39214285D01*
X71392857Y-39166666D01*
X71535714Y-39166666D01*
X71630952Y-39214285D01*
X71678571Y-39261904D01*
X71726190Y-39357142D01*
X71726190Y-39738095D01*
X72202380Y-38214285D02*
X72202380Y-38785714D01*
X72202380Y-38500000D02*
X71202380Y-38500000D01*
X71345238Y-38595238D01*
X71440476Y-38690476D01*
X71488095Y-38785714D01*
X72202380Y-36666666D02*
X71726190Y-37000000D01*
X72202380Y-37238095D02*
X71202380Y-37238095D01*
X71202380Y-36857142D01*
X71250000Y-36761904D01*
X71297619Y-36714285D01*
X71392857Y-36666666D01*
X71535714Y-36666666D01*
X71630952Y-36714285D01*
X71678571Y-36761904D01*
X71726190Y-36857142D01*
X71726190Y-37238095D01*
X71297619Y-36285714D02*
X71250000Y-36238095D01*
X71202380Y-36142857D01*
X71202380Y-35904761D01*
X71250000Y-35809523D01*
X71297619Y-35761904D01*
X71392857Y-35714285D01*
X71488095Y-35714285D01*
X71630952Y-35761904D01*
X72202380Y-36333333D01*
X72202380Y-35714285D01*
X72202380Y-34166666D02*
X71726190Y-34500000D01*
X72202380Y-34738095D02*
X71202380Y-34738095D01*
X71202380Y-34357142D01*
X71250000Y-34261904D01*
X71297619Y-34214285D01*
X71392857Y-34166666D01*
X71535714Y-34166666D01*
X71630952Y-34214285D01*
X71678571Y-34261904D01*
X71726190Y-34357142D01*
X71726190Y-34738095D01*
X71202380Y-33833333D02*
X71202380Y-33214285D01*
X71583333Y-33547619D01*
X71583333Y-33404761D01*
X71630952Y-33309523D01*
X71678571Y-33261904D01*
X71773809Y-33214285D01*
X72011904Y-33214285D01*
X72107142Y-33261904D01*
X72154761Y-33309523D01*
X72202380Y-33404761D01*
X72202380Y-33690476D01*
X72154761Y-33785714D01*
X72107142Y-33833333D01*
X36345833Y-33472380D02*
X36012500Y-32996190D01*
X35774404Y-33472380D02*
X35774404Y-32472380D01*
X36155357Y-32472380D01*
X36250595Y-32520000D01*
X36298214Y-32567619D01*
X36345833Y-32662857D01*
X36345833Y-32805714D01*
X36298214Y-32900952D01*
X36250595Y-32948571D01*
X36155357Y-32996190D01*
X35774404Y-32996190D01*
X37202976Y-32805714D02*
X37202976Y-33472380D01*
X36964880Y-32424761D02*
X36726785Y-33139047D01*
X37345833Y-33139047D01*
X28993095Y-45172380D02*
X28993095Y-45981904D01*
X29040714Y-46077142D01*
X29088333Y-46124761D01*
X29183571Y-46172380D01*
X29374047Y-46172380D01*
X29469285Y-46124761D01*
X29516904Y-46077142D01*
X29564523Y-45981904D01*
X29564523Y-45172380D01*
X29993095Y-45267619D02*
X30040714Y-45220000D01*
X30135952Y-45172380D01*
X30374047Y-45172380D01*
X30469285Y-45220000D01*
X30516904Y-45267619D01*
X30564523Y-45362857D01*
X30564523Y-45458095D01*
X30516904Y-45600952D01*
X29945476Y-46172380D01*
X30564523Y-46172380D01*
X34073095Y-45172380D02*
X34073095Y-45981904D01*
X34120714Y-46077142D01*
X34168333Y-46124761D01*
X34263571Y-46172380D01*
X34454047Y-46172380D01*
X34549285Y-46124761D01*
X34596904Y-46077142D01*
X34644523Y-45981904D01*
X34644523Y-45172380D01*
X35025476Y-45172380D02*
X35644523Y-45172380D01*
X35311190Y-45553333D01*
X35454047Y-45553333D01*
X35549285Y-45600952D01*
X35596904Y-45648571D01*
X35644523Y-45743809D01*
X35644523Y-45981904D01*
X35596904Y-46077142D01*
X35549285Y-46124761D01*
X35454047Y-46172380D01*
X35168333Y-46172380D01*
X35073095Y-46124761D01*
X35025476Y-46077142D01*
X39153095Y-45172380D02*
X39153095Y-45981904D01*
X39200714Y-46077142D01*
X39248333Y-46124761D01*
X39343571Y-46172380D01*
X39534047Y-46172380D01*
X39629285Y-46124761D01*
X39676904Y-46077142D01*
X39724523Y-45981904D01*
X39724523Y-45172380D01*
X40629285Y-45505714D02*
X40629285Y-46172380D01*
X40391190Y-45124761D02*
X40153095Y-45839047D01*
X40772142Y-45839047D01*
X44233095Y-45172380D02*
X44233095Y-45981904D01*
X44280714Y-46077142D01*
X44328333Y-46124761D01*
X44423571Y-46172380D01*
X44614047Y-46172380D01*
X44709285Y-46124761D01*
X44756904Y-46077142D01*
X44804523Y-45981904D01*
X44804523Y-45172380D01*
X45756904Y-45172380D02*
X45280714Y-45172380D01*
X45233095Y-45648571D01*
X45280714Y-45600952D01*
X45375952Y-45553333D01*
X45614047Y-45553333D01*
X45709285Y-45600952D01*
X45756904Y-45648571D01*
X45804523Y-45743809D01*
X45804523Y-45981904D01*
X45756904Y-46077142D01*
X45709285Y-46124761D01*
X45614047Y-46172380D01*
X45375952Y-46172380D01*
X45280714Y-46124761D01*
X45233095Y-46077142D01*
X49313095Y-45172380D02*
X49313095Y-45981904D01*
X49360714Y-46077142D01*
X49408333Y-46124761D01*
X49503571Y-46172380D01*
X49694047Y-46172380D01*
X49789285Y-46124761D01*
X49836904Y-46077142D01*
X49884523Y-45981904D01*
X49884523Y-45172380D01*
X50789285Y-45172380D02*
X50598809Y-45172380D01*
X50503571Y-45220000D01*
X50455952Y-45267619D01*
X50360714Y-45410476D01*
X50313095Y-45600952D01*
X50313095Y-45981904D01*
X50360714Y-46077142D01*
X50408333Y-46124761D01*
X50503571Y-46172380D01*
X50694047Y-46172380D01*
X50789285Y-46124761D01*
X50836904Y-46077142D01*
X50884523Y-45981904D01*
X50884523Y-45743809D01*
X50836904Y-45648571D01*
X50789285Y-45600952D01*
X50694047Y-45553333D01*
X50503571Y-45553333D01*
X50408333Y-45600952D01*
X50360714Y-45648571D01*
X50313095Y-45743809D01*
X54393095Y-45172380D02*
X54393095Y-45981904D01*
X54440714Y-46077142D01*
X54488333Y-46124761D01*
X54583571Y-46172380D01*
X54774047Y-46172380D01*
X54869285Y-46124761D01*
X54916904Y-46077142D01*
X54964523Y-45981904D01*
X54964523Y-45172380D01*
X55345476Y-45172380D02*
X56012142Y-45172380D01*
X55583571Y-46172380D01*
X59473095Y-45172380D02*
X59473095Y-45981904D01*
X59520714Y-46077142D01*
X59568333Y-46124761D01*
X59663571Y-46172380D01*
X59854047Y-46172380D01*
X59949285Y-46124761D01*
X59996904Y-46077142D01*
X60044523Y-45981904D01*
X60044523Y-45172380D01*
X60663571Y-45600952D02*
X60568333Y-45553333D01*
X60520714Y-45505714D01*
X60473095Y-45410476D01*
X60473095Y-45362857D01*
X60520714Y-45267619D01*
X60568333Y-45220000D01*
X60663571Y-45172380D01*
X60854047Y-45172380D01*
X60949285Y-45220000D01*
X60996904Y-45267619D01*
X61044523Y-45362857D01*
X61044523Y-45410476D01*
X60996904Y-45505714D01*
X60949285Y-45553333D01*
X60854047Y-45600952D01*
X60663571Y-45600952D01*
X60568333Y-45648571D01*
X60520714Y-45696190D01*
X60473095Y-45791428D01*
X60473095Y-45981904D01*
X60520714Y-46077142D01*
X60568333Y-46124761D01*
X60663571Y-46172380D01*
X60854047Y-46172380D01*
X60949285Y-46124761D01*
X60996904Y-46077142D01*
X61044523Y-45981904D01*
X61044523Y-45791428D01*
X60996904Y-45696190D01*
X60949285Y-45648571D01*
X60854047Y-45600952D01*
X64553095Y-45172380D02*
X64553095Y-45981904D01*
X64600714Y-46077142D01*
X64648333Y-46124761D01*
X64743571Y-46172380D01*
X64934047Y-46172380D01*
X65029285Y-46124761D01*
X65076904Y-46077142D01*
X65124523Y-45981904D01*
X65124523Y-45172380D01*
X65648333Y-46172380D02*
X65838809Y-46172380D01*
X65934047Y-46124761D01*
X65981666Y-46077142D01*
X66076904Y-45934285D01*
X66124523Y-45743809D01*
X66124523Y-45362857D01*
X66076904Y-45267619D01*
X66029285Y-45220000D01*
X65934047Y-45172380D01*
X65743571Y-45172380D01*
X65648333Y-45220000D01*
X65600714Y-45267619D01*
X65553095Y-45362857D01*
X65553095Y-45600952D01*
X65600714Y-45696190D01*
X65648333Y-45743809D01*
X65743571Y-45791428D01*
X65934047Y-45791428D01*
X66029285Y-45743809D01*
X66076904Y-45696190D01*
X66124523Y-45600952D01*
X75952380Y-40083333D02*
X76666666Y-40083333D01*
X76809523Y-40130952D01*
X76904761Y-40226190D01*
X76952380Y-40369047D01*
X76952380Y-40464285D01*
X76952380Y-39607142D02*
X75952380Y-39607142D01*
X75952380Y-39226190D01*
X76000000Y-39130952D01*
X76047619Y-39083333D01*
X76142857Y-39035714D01*
X76285714Y-39035714D01*
X76380952Y-39083333D01*
X76428571Y-39130952D01*
X76476190Y-39226190D01*
X76476190Y-39607142D01*
X76952380Y-38083333D02*
X76952380Y-38654761D01*
X76952380Y-38369047D02*
X75952380Y-38369047D01*
X76095238Y-38464285D01*
X76190476Y-38559523D01*
X76238095Y-38654761D01*
X75952380Y-37333333D02*
X76666666Y-37333333D01*
X76809523Y-37380952D01*
X76904761Y-37476190D01*
X76952380Y-37619047D01*
X76952380Y-37714285D01*
X76952380Y-36857142D02*
X75952380Y-36857142D01*
X75952380Y-36476190D01*
X76000000Y-36380952D01*
X76047619Y-36333333D01*
X76142857Y-36285714D01*
X76285714Y-36285714D01*
X76380952Y-36333333D01*
X76428571Y-36380952D01*
X76476190Y-36476190D01*
X76476190Y-36857142D01*
X76047619Y-35904761D02*
X76000000Y-35857142D01*
X75952380Y-35761904D01*
X75952380Y-35523809D01*
X76000000Y-35428571D01*
X76047619Y-35380952D01*
X76142857Y-35333333D01*
X76238095Y-35333333D01*
X76380952Y-35380952D01*
X76952380Y-35952380D01*
X76952380Y-35333333D01*
X75952380Y-34583333D02*
X76666666Y-34583333D01*
X76809523Y-34630952D01*
X76904761Y-34726190D01*
X76952380Y-34869047D01*
X76952380Y-34964285D01*
X76952380Y-34107142D02*
X75952380Y-34107142D01*
X75952380Y-33726190D01*
X76000000Y-33630952D01*
X76047619Y-33583333D01*
X76142857Y-33535714D01*
X76285714Y-33535714D01*
X76380952Y-33583333D01*
X76428571Y-33630952D01*
X76476190Y-33726190D01*
X76476190Y-34107142D01*
X75952380Y-33202380D02*
X75952380Y-32583333D01*
X76333333Y-32916666D01*
X76333333Y-32773809D01*
X76380952Y-32678571D01*
X76428571Y-32630952D01*
X76523809Y-32583333D01*
X76761904Y-32583333D01*
X76857142Y-32630952D01*
X76904761Y-32678571D01*
X76952380Y-32773809D01*
X76952380Y-33059523D01*
X76904761Y-33154761D01*
X76857142Y-33202380D01*
X30297380Y-37631666D02*
X29821190Y-37965000D01*
X30297380Y-38203095D02*
X29297380Y-38203095D01*
X29297380Y-37822142D01*
X29345000Y-37726904D01*
X29392619Y-37679285D01*
X29487857Y-37631666D01*
X29630714Y-37631666D01*
X29725952Y-37679285D01*
X29773571Y-37726904D01*
X29821190Y-37822142D01*
X29821190Y-38203095D01*
X29297380Y-36726904D02*
X29297380Y-37203095D01*
X29773571Y-37250714D01*
X29725952Y-37203095D01*
X29678333Y-37107857D01*
X29678333Y-36869761D01*
X29725952Y-36774523D01*
X29773571Y-36726904D01*
X29868809Y-36679285D01*
X30106904Y-36679285D01*
X30202142Y-36726904D01*
X30249761Y-36774523D01*
X30297380Y-36869761D01*
X30297380Y-37107857D01*
X30249761Y-37203095D01*
X30202142Y-37250714D01*
X25217380Y-37631666D02*
X24741190Y-37965000D01*
X25217380Y-38203095D02*
X24217380Y-38203095D01*
X24217380Y-37822142D01*
X24265000Y-37726904D01*
X24312619Y-37679285D01*
X24407857Y-37631666D01*
X24550714Y-37631666D01*
X24645952Y-37679285D01*
X24693571Y-37726904D01*
X24741190Y-37822142D01*
X24741190Y-38203095D01*
X24217380Y-36774523D02*
X24217380Y-36965000D01*
X24265000Y-37060238D01*
X24312619Y-37107857D01*
X24455476Y-37203095D01*
X24645952Y-37250714D01*
X25026904Y-37250714D01*
X25122142Y-37203095D01*
X25169761Y-37155476D01*
X25217380Y-37060238D01*
X25217380Y-36869761D01*
X25169761Y-36774523D01*
X25122142Y-36726904D01*
X25026904Y-36679285D01*
X24788809Y-36679285D01*
X24693571Y-36726904D01*
X24645952Y-36774523D01*
X24598333Y-36869761D01*
X24598333Y-37060238D01*
X24645952Y-37155476D01*
X24693571Y-37203095D01*
X24788809Y-37250714D01*
X33472380Y-38584166D02*
X32996190Y-38917500D01*
X33472380Y-39155595D02*
X32472380Y-39155595D01*
X32472380Y-38774642D01*
X32520000Y-38679404D01*
X32567619Y-38631785D01*
X32662857Y-38584166D01*
X32805714Y-38584166D01*
X32900952Y-38631785D01*
X32948571Y-38679404D01*
X32996190Y-38774642D01*
X32996190Y-39155595D01*
X32472380Y-38250833D02*
X32472380Y-37584166D01*
X33472380Y-38012738D01*
X32202380Y-38584166D02*
X31726190Y-38917500D01*
X32202380Y-39155595D02*
X31202380Y-39155595D01*
X31202380Y-38774642D01*
X31250000Y-38679404D01*
X31297619Y-38631785D01*
X31392857Y-38584166D01*
X31535714Y-38584166D01*
X31630952Y-38631785D01*
X31678571Y-38679404D01*
X31726190Y-38774642D01*
X31726190Y-39155595D01*
X31630952Y-38012738D02*
X31583333Y-38107976D01*
X31535714Y-38155595D01*
X31440476Y-38203214D01*
X31392857Y-38203214D01*
X31297619Y-38155595D01*
X31250000Y-38107976D01*
X31202380Y-38012738D01*
X31202380Y-37822261D01*
X31250000Y-37727023D01*
X31297619Y-37679404D01*
X31392857Y-37631785D01*
X31440476Y-37631785D01*
X31535714Y-37679404D01*
X31583333Y-37727023D01*
X31630952Y-37822261D01*
X31630952Y-38012738D01*
X31678571Y-38107976D01*
X31726190Y-38155595D01*
X31821428Y-38203214D01*
X32011904Y-38203214D01*
X32107142Y-38155595D01*
X32154761Y-38107976D01*
X32202380Y-38012738D01*
X32202380Y-37822261D01*
X32154761Y-37727023D01*
X32107142Y-37679404D01*
X32011904Y-37631785D01*
X31821428Y-37631785D01*
X31726190Y-37679404D01*
X31678571Y-37727023D01*
X31630952Y-37822261D01*
X38552380Y-38584166D02*
X38076190Y-38917500D01*
X38552380Y-39155595D02*
X37552380Y-39155595D01*
X37552380Y-38774642D01*
X37600000Y-38679404D01*
X37647619Y-38631785D01*
X37742857Y-38584166D01*
X37885714Y-38584166D01*
X37980952Y-38631785D01*
X38028571Y-38679404D01*
X38076190Y-38774642D01*
X38076190Y-39155595D01*
X38552380Y-38107976D02*
X38552380Y-37917500D01*
X38504761Y-37822261D01*
X38457142Y-37774642D01*
X38314285Y-37679404D01*
X38123809Y-37631785D01*
X37742857Y-37631785D01*
X37647619Y-37679404D01*
X37600000Y-37727023D01*
X37552380Y-37822261D01*
X37552380Y-38012738D01*
X37600000Y-38107976D01*
X37647619Y-38155595D01*
X37742857Y-38203214D01*
X37980952Y-38203214D01*
X38076190Y-38155595D01*
X38123809Y-38107976D01*
X38171428Y-38012738D01*
X38171428Y-37822261D01*
X38123809Y-37727023D01*
X38076190Y-37679404D01*
X37980952Y-37631785D01*
X37282380Y-39060357D02*
X36806190Y-39393690D01*
X37282380Y-39631785D02*
X36282380Y-39631785D01*
X36282380Y-39250833D01*
X36330000Y-39155595D01*
X36377619Y-39107976D01*
X36472857Y-39060357D01*
X36615714Y-39060357D01*
X36710952Y-39107976D01*
X36758571Y-39155595D01*
X36806190Y-39250833D01*
X36806190Y-39631785D01*
X37282380Y-38107976D02*
X37282380Y-38679404D01*
X37282380Y-38393690D02*
X36282380Y-38393690D01*
X36425238Y-38488928D01*
X36520476Y-38584166D01*
X36568095Y-38679404D01*
X36282380Y-37488928D02*
X36282380Y-37393690D01*
X36330000Y-37298452D01*
X36377619Y-37250833D01*
X36472857Y-37203214D01*
X36663333Y-37155595D01*
X36901428Y-37155595D01*
X37091904Y-37203214D01*
X37187142Y-37250833D01*
X37234761Y-37298452D01*
X37282380Y-37393690D01*
X37282380Y-37488928D01*
X37234761Y-37584166D01*
X37187142Y-37631785D01*
X37091904Y-37679404D01*
X36901428Y-37727023D01*
X36663333Y-37727023D01*
X36472857Y-37679404D01*
X36377619Y-37631785D01*
X36330000Y-37584166D01*
X36282380Y-37488928D01*
X44902380Y-40647857D02*
X44426190Y-40981190D01*
X44902380Y-41219285D02*
X43902380Y-41219285D01*
X43902380Y-40838333D01*
X43950000Y-40743095D01*
X43997619Y-40695476D01*
X44092857Y-40647857D01*
X44235714Y-40647857D01*
X44330952Y-40695476D01*
X44378571Y-40743095D01*
X44426190Y-40838333D01*
X44426190Y-41219285D01*
X44902380Y-39695476D02*
X44902380Y-40266904D01*
X44902380Y-39981190D02*
X43902380Y-39981190D01*
X44045238Y-40076428D01*
X44140476Y-40171666D01*
X44188095Y-40266904D01*
X44902380Y-38743095D02*
X44902380Y-39314523D01*
X44902380Y-39028809D02*
X43902380Y-39028809D01*
X44045238Y-39124047D01*
X44140476Y-39219285D01*
X44188095Y-39314523D01*
X41092380Y-40647857D02*
X40616190Y-40981190D01*
X41092380Y-41219285D02*
X40092380Y-41219285D01*
X40092380Y-40838333D01*
X40140000Y-40743095D01*
X40187619Y-40695476D01*
X40282857Y-40647857D01*
X40425714Y-40647857D01*
X40520952Y-40695476D01*
X40568571Y-40743095D01*
X40616190Y-40838333D01*
X40616190Y-41219285D01*
X41092380Y-39695476D02*
X41092380Y-40266904D01*
X41092380Y-39981190D02*
X40092380Y-39981190D01*
X40235238Y-40076428D01*
X40330476Y-40171666D01*
X40378095Y-40266904D01*
X40187619Y-39314523D02*
X40140000Y-39266904D01*
X40092380Y-39171666D01*
X40092380Y-38933571D01*
X40140000Y-38838333D01*
X40187619Y-38790714D01*
X40282857Y-38743095D01*
X40378095Y-38743095D01*
X40520952Y-38790714D01*
X41092380Y-39362142D01*
X41092380Y-38743095D01*
X49982380Y-40647857D02*
X49506190Y-40981190D01*
X49982380Y-41219285D02*
X48982380Y-41219285D01*
X48982380Y-40838333D01*
X49030000Y-40743095D01*
X49077619Y-40695476D01*
X49172857Y-40647857D01*
X49315714Y-40647857D01*
X49410952Y-40695476D01*
X49458571Y-40743095D01*
X49506190Y-40838333D01*
X49506190Y-41219285D01*
X49982380Y-39695476D02*
X49982380Y-40266904D01*
X49982380Y-39981190D02*
X48982380Y-39981190D01*
X49125238Y-40076428D01*
X49220476Y-40171666D01*
X49268095Y-40266904D01*
X48982380Y-39362142D02*
X48982380Y-38743095D01*
X49363333Y-39076428D01*
X49363333Y-38933571D01*
X49410952Y-38838333D01*
X49458571Y-38790714D01*
X49553809Y-38743095D01*
X49791904Y-38743095D01*
X49887142Y-38790714D01*
X49934761Y-38838333D01*
X49982380Y-38933571D01*
X49982380Y-39219285D01*
X49934761Y-39314523D01*
X49887142Y-39362142D01*
X46172380Y-40647857D02*
X45696190Y-40981190D01*
X46172380Y-41219285D02*
X45172380Y-41219285D01*
X45172380Y-40838333D01*
X45220000Y-40743095D01*
X45267619Y-40695476D01*
X45362857Y-40647857D01*
X45505714Y-40647857D01*
X45600952Y-40695476D01*
X45648571Y-40743095D01*
X45696190Y-40838333D01*
X45696190Y-41219285D01*
X46172380Y-39695476D02*
X46172380Y-40266904D01*
X46172380Y-39981190D02*
X45172380Y-39981190D01*
X45315238Y-40076428D01*
X45410476Y-40171666D01*
X45458095Y-40266904D01*
X45505714Y-38838333D02*
X46172380Y-38838333D01*
X45124761Y-39076428D02*
X45839047Y-39314523D01*
X45839047Y-38695476D01*
X53792380Y-39060357D02*
X53316190Y-39393690D01*
X53792380Y-39631785D02*
X52792380Y-39631785D01*
X52792380Y-39250833D01*
X52840000Y-39155595D01*
X52887619Y-39107976D01*
X52982857Y-39060357D01*
X53125714Y-39060357D01*
X53220952Y-39107976D01*
X53268571Y-39155595D01*
X53316190Y-39250833D01*
X53316190Y-39631785D01*
X53792380Y-38107976D02*
X53792380Y-38679404D01*
X53792380Y-38393690D02*
X52792380Y-38393690D01*
X52935238Y-38488928D01*
X53030476Y-38584166D01*
X53078095Y-38679404D01*
X52792380Y-37203214D02*
X52792380Y-37679404D01*
X53268571Y-37727023D01*
X53220952Y-37679404D01*
X53173333Y-37584166D01*
X53173333Y-37346071D01*
X53220952Y-37250833D01*
X53268571Y-37203214D01*
X53363809Y-37155595D01*
X53601904Y-37155595D01*
X53697142Y-37203214D01*
X53744761Y-37250833D01*
X53792380Y-37346071D01*
X53792380Y-37584166D01*
X53744761Y-37679404D01*
X53697142Y-37727023D01*
X52522380Y-39060357D02*
X52046190Y-39393690D01*
X52522380Y-39631785D02*
X51522380Y-39631785D01*
X51522380Y-39250833D01*
X51570000Y-39155595D01*
X51617619Y-39107976D01*
X51712857Y-39060357D01*
X51855714Y-39060357D01*
X51950952Y-39107976D01*
X51998571Y-39155595D01*
X52046190Y-39250833D01*
X52046190Y-39631785D01*
X52522380Y-38107976D02*
X52522380Y-38679404D01*
X52522380Y-38393690D02*
X51522380Y-38393690D01*
X51665238Y-38488928D01*
X51760476Y-38584166D01*
X51808095Y-38679404D01*
X51522380Y-37250833D02*
X51522380Y-37441309D01*
X51570000Y-37536547D01*
X51617619Y-37584166D01*
X51760476Y-37679404D01*
X51950952Y-37727023D01*
X52331904Y-37727023D01*
X52427142Y-37679404D01*
X52474761Y-37631785D01*
X52522380Y-37536547D01*
X52522380Y-37346071D01*
X52474761Y-37250833D01*
X52427142Y-37203214D01*
X52331904Y-37155595D01*
X52093809Y-37155595D01*
X51998571Y-37203214D01*
X51950952Y-37250833D01*
X51903333Y-37346071D01*
X51903333Y-37536547D01*
X51950952Y-37631785D01*
X51998571Y-37679404D01*
X52093809Y-37727023D01*
X58872380Y-39060357D02*
X58396190Y-39393690D01*
X58872380Y-39631785D02*
X57872380Y-39631785D01*
X57872380Y-39250833D01*
X57920000Y-39155595D01*
X57967619Y-39107976D01*
X58062857Y-39060357D01*
X58205714Y-39060357D01*
X58300952Y-39107976D01*
X58348571Y-39155595D01*
X58396190Y-39250833D01*
X58396190Y-39631785D01*
X58872380Y-38107976D02*
X58872380Y-38679404D01*
X58872380Y-38393690D02*
X57872380Y-38393690D01*
X58015238Y-38488928D01*
X58110476Y-38584166D01*
X58158095Y-38679404D01*
X57872380Y-37774642D02*
X57872380Y-37107976D01*
X58872380Y-37536547D01*
X57602380Y-39060357D02*
X57126190Y-39393690D01*
X57602380Y-39631785D02*
X56602380Y-39631785D01*
X56602380Y-39250833D01*
X56650000Y-39155595D01*
X56697619Y-39107976D01*
X56792857Y-39060357D01*
X56935714Y-39060357D01*
X57030952Y-39107976D01*
X57078571Y-39155595D01*
X57126190Y-39250833D01*
X57126190Y-39631785D01*
X57602380Y-38107976D02*
X57602380Y-38679404D01*
X57602380Y-38393690D02*
X56602380Y-38393690D01*
X56745238Y-38488928D01*
X56840476Y-38584166D01*
X56888095Y-38679404D01*
X57030952Y-37536547D02*
X56983333Y-37631785D01*
X56935714Y-37679404D01*
X56840476Y-37727023D01*
X56792857Y-37727023D01*
X56697619Y-37679404D01*
X56650000Y-37631785D01*
X56602380Y-37536547D01*
X56602380Y-37346071D01*
X56650000Y-37250833D01*
X56697619Y-37203214D01*
X56792857Y-37155595D01*
X56840476Y-37155595D01*
X56935714Y-37203214D01*
X56983333Y-37250833D01*
X57030952Y-37346071D01*
X57030952Y-37536547D01*
X57078571Y-37631785D01*
X57126190Y-37679404D01*
X57221428Y-37727023D01*
X57411904Y-37727023D01*
X57507142Y-37679404D01*
X57554761Y-37631785D01*
X57602380Y-37536547D01*
X57602380Y-37346071D01*
X57554761Y-37250833D01*
X57507142Y-37203214D01*
X57411904Y-37155595D01*
X57221428Y-37155595D01*
X57126190Y-37203214D01*
X57078571Y-37250833D01*
X57030952Y-37346071D01*
X63952380Y-39060357D02*
X63476190Y-39393690D01*
X63952380Y-39631785D02*
X62952380Y-39631785D01*
X62952380Y-39250833D01*
X63000000Y-39155595D01*
X63047619Y-39107976D01*
X63142857Y-39060357D01*
X63285714Y-39060357D01*
X63380952Y-39107976D01*
X63428571Y-39155595D01*
X63476190Y-39250833D01*
X63476190Y-39631785D01*
X63952380Y-38107976D02*
X63952380Y-38679404D01*
X63952380Y-38393690D02*
X62952380Y-38393690D01*
X63095238Y-38488928D01*
X63190476Y-38584166D01*
X63238095Y-38679404D01*
X63952380Y-37631785D02*
X63952380Y-37441309D01*
X63904761Y-37346071D01*
X63857142Y-37298452D01*
X63714285Y-37203214D01*
X63523809Y-37155595D01*
X63142857Y-37155595D01*
X63047619Y-37203214D01*
X63000000Y-37250833D01*
X62952380Y-37346071D01*
X62952380Y-37536547D01*
X63000000Y-37631785D01*
X63047619Y-37679404D01*
X63142857Y-37727023D01*
X63380952Y-37727023D01*
X63476190Y-37679404D01*
X63523809Y-37631785D01*
X63571428Y-37536547D01*
X63571428Y-37346071D01*
X63523809Y-37250833D01*
X63476190Y-37203214D01*
X63380952Y-37155595D01*
X62682380Y-39060357D02*
X62206190Y-39393690D01*
X62682380Y-39631785D02*
X61682380Y-39631785D01*
X61682380Y-39250833D01*
X61730000Y-39155595D01*
X61777619Y-39107976D01*
X61872857Y-39060357D01*
X62015714Y-39060357D01*
X62110952Y-39107976D01*
X62158571Y-39155595D01*
X62206190Y-39250833D01*
X62206190Y-39631785D01*
X61777619Y-38679404D02*
X61730000Y-38631785D01*
X61682380Y-38536547D01*
X61682380Y-38298452D01*
X61730000Y-38203214D01*
X61777619Y-38155595D01*
X61872857Y-38107976D01*
X61968095Y-38107976D01*
X62110952Y-38155595D01*
X62682380Y-38727023D01*
X62682380Y-38107976D01*
X61682380Y-37488928D02*
X61682380Y-37393690D01*
X61730000Y-37298452D01*
X61777619Y-37250833D01*
X61872857Y-37203214D01*
X62063333Y-37155595D01*
X62301428Y-37155595D01*
X62491904Y-37203214D01*
X62587142Y-37250833D01*
X62634761Y-37298452D01*
X62682380Y-37393690D01*
X62682380Y-37488928D01*
X62634761Y-37584166D01*
X62587142Y-37631785D01*
X62491904Y-37679404D01*
X62301428Y-37727023D01*
X62063333Y-37727023D01*
X61872857Y-37679404D01*
X61777619Y-37631785D01*
X61730000Y-37584166D01*
X61682380Y-37488928D01*
X29511666Y-31519880D02*
X29511666Y-32234166D01*
X29464047Y-32377023D01*
X29368809Y-32472261D01*
X29225952Y-32519880D01*
X29130714Y-32519880D01*
X30511666Y-32519880D02*
X29940238Y-32519880D01*
X30225952Y-32519880D02*
X30225952Y-31519880D01*
X30130714Y-31662738D01*
X30035476Y-31757976D01*
X29940238Y-31805595D01*
X23487142Y-31789642D02*
X23439523Y-31837261D01*
X23296666Y-31884880D01*
X23201428Y-31884880D01*
X23058571Y-31837261D01*
X22963333Y-31742023D01*
X22915714Y-31646785D01*
X22868095Y-31456309D01*
X22868095Y-31313452D01*
X22915714Y-31122976D01*
X22963333Y-31027738D01*
X23058571Y-30932500D01*
X23201428Y-30884880D01*
X23296666Y-30884880D01*
X23439523Y-30932500D01*
X23487142Y-30980119D01*
X24439523Y-31884880D02*
X23868095Y-31884880D01*
X24153809Y-31884880D02*
X24153809Y-30884880D01*
X24058571Y-31027738D01*
X23963333Y-31122976D01*
X23868095Y-31170595D01*
X24915714Y-31884880D02*
X25106190Y-31884880D01*
X25201428Y-31837261D01*
X25249047Y-31789642D01*
X25344285Y-31646785D01*
X25391904Y-31456309D01*
X25391904Y-31075357D01*
X25344285Y-30980119D01*
X25296666Y-30932500D01*
X25201428Y-30884880D01*
X25010952Y-30884880D01*
X24915714Y-30932500D01*
X24868095Y-30980119D01*
X24820476Y-31075357D01*
X24820476Y-31313452D01*
X24868095Y-31408690D01*
X24915714Y-31456309D01*
X25010952Y-31503928D01*
X25201428Y-31503928D01*
X25296666Y-31456309D01*
X25344285Y-31408690D01*
X25391904Y-31313452D01*
X24122142Y-42362380D02*
X23788809Y-41886190D01*
X23550714Y-42362380D02*
X23550714Y-41362380D01*
X23931666Y-41362380D01*
X24026904Y-41410000D01*
X24074523Y-41457619D01*
X24122142Y-41552857D01*
X24122142Y-41695714D01*
X24074523Y-41790952D01*
X24026904Y-41838571D01*
X23931666Y-41886190D01*
X23550714Y-41886190D01*
X24503095Y-41457619D02*
X24550714Y-41410000D01*
X24645952Y-41362380D01*
X24884047Y-41362380D01*
X24979285Y-41410000D01*
X25026904Y-41457619D01*
X25074523Y-41552857D01*
X25074523Y-41648095D01*
X25026904Y-41790952D01*
X24455476Y-42362380D01*
X25074523Y-42362380D01*
X26026904Y-42362380D02*
X25455476Y-42362380D01*
X25741190Y-42362380D02*
X25741190Y-41362380D01*
X25645952Y-41505238D01*
X25550714Y-41600476D01*
X25455476Y-41648095D01*
X14374761Y-45529404D02*
X14422380Y-45386547D01*
X14422380Y-45148452D01*
X14374761Y-45053214D01*
X14327142Y-45005595D01*
X14231904Y-44957976D01*
X14136666Y-44957976D01*
X14041428Y-45005595D01*
X13993809Y-45053214D01*
X13946190Y-45148452D01*
X13898571Y-45338928D01*
X13850952Y-45434166D01*
X13803333Y-45481785D01*
X13708095Y-45529404D01*
X13612857Y-45529404D01*
X13517619Y-45481785D01*
X13470000Y-45434166D01*
X13422380Y-45338928D01*
X13422380Y-45100833D01*
X13470000Y-44957976D01*
X14422380Y-44005595D02*
X14422380Y-44577023D01*
X14422380Y-44291309D02*
X13422380Y-44291309D01*
X13565238Y-44386547D01*
X13660476Y-44481785D01*
X13708095Y-44577023D01*
X17811904Y-30884880D02*
X17811904Y-31694404D01*
X17859523Y-31789642D01*
X17907142Y-31837261D01*
X18002380Y-31884880D01*
X18192857Y-31884880D01*
X18288095Y-31837261D01*
X18335714Y-31789642D01*
X18383333Y-31694404D01*
X18383333Y-30884880D01*
X19383333Y-31884880D02*
X18811904Y-31884880D01*
X19097619Y-31884880D02*
X19097619Y-30884880D01*
X19002380Y-31027738D01*
X18907142Y-31122976D01*
X18811904Y-31170595D01*
X20002380Y-30884880D02*
X20097619Y-30884880D01*
X20192857Y-30932500D01*
X20240476Y-30980119D01*
X20288095Y-31075357D01*
X20335714Y-31265833D01*
X20335714Y-31503928D01*
X20288095Y-31694404D01*
X20240476Y-31789642D01*
X20192857Y-31837261D01*
X20097619Y-31884880D01*
X20002380Y-31884880D01*
X19907142Y-31837261D01*
X19859523Y-31789642D01*
X19811904Y-31694404D01*
X19764285Y-31503928D01*
X19764285Y-31265833D01*
X19811904Y-31075357D01*
X19859523Y-30980119D01*
X19907142Y-30932500D01*
X20002380Y-30884880D01*
M02*
