G04 #@! TF.GenerationSoftware,KiCad,Pcbnew,(5.1.4)-1*
G04 #@! TF.CreationDate,2019-10-12T23:56:11-04:00*
G04 #@! TF.ProjectId,haptic-belt,68617074-6963-42d6-9265-6c742e6b6963,rev?*
G04 #@! TF.SameCoordinates,Original*
G04 #@! TF.FileFunction,Soldermask,Bot*
G04 #@! TF.FilePolarity,Negative*
%FSLAX46Y46*%
G04 Gerber Fmt 4.6, Leading zero omitted, Abs format (unit mm)*
G04 Created by KiCad (PCBNEW (5.1.4)-1) date 2019-10-12 23:56:11*
%MOMM*%
%LPD*%
G04 APERTURE LIST*
%ADD10C,0.100000*%
G04 APERTURE END LIST*
D10*
G36*
X127901000Y-91071000D02*
G01*
X126099000Y-91071000D01*
X126099000Y-89269000D01*
X127901000Y-89269000D01*
X127901000Y-91071000D01*
X127901000Y-91071000D01*
G37*
G36*
X127110442Y-86735518D02*
G01*
X127176627Y-86742037D01*
X127346466Y-86793557D01*
X127502991Y-86877222D01*
X127538729Y-86906552D01*
X127640186Y-86989814D01*
X127723448Y-87091271D01*
X127752778Y-87127009D01*
X127836443Y-87283534D01*
X127887963Y-87453373D01*
X127905359Y-87630000D01*
X127887963Y-87806627D01*
X127836443Y-87976466D01*
X127752778Y-88132991D01*
X127723448Y-88168729D01*
X127640186Y-88270186D01*
X127538729Y-88353448D01*
X127502991Y-88382778D01*
X127346466Y-88466443D01*
X127176627Y-88517963D01*
X127110442Y-88524482D01*
X127044260Y-88531000D01*
X126955740Y-88531000D01*
X126889558Y-88524482D01*
X126823373Y-88517963D01*
X126653534Y-88466443D01*
X126497009Y-88382778D01*
X126461271Y-88353448D01*
X126359814Y-88270186D01*
X126276552Y-88168729D01*
X126247222Y-88132991D01*
X126163557Y-87976466D01*
X126112037Y-87806627D01*
X126094641Y-87630000D01*
X126112037Y-87453373D01*
X126163557Y-87283534D01*
X126247222Y-87127009D01*
X126276552Y-87091271D01*
X126359814Y-86989814D01*
X126461271Y-86906552D01*
X126497009Y-86877222D01*
X126653534Y-86793557D01*
X126823373Y-86742037D01*
X126889558Y-86735518D01*
X126955740Y-86729000D01*
X127044260Y-86729000D01*
X127110442Y-86735518D01*
X127110442Y-86735518D01*
G37*
M02*
