G04 #@! TF.GenerationSoftware,KiCad,Pcbnew,(5.1.4)-1*
G04 #@! TF.CreationDate,2019-11-05T21:54:15-05:00*
G04 #@! TF.ProjectId,haptic-uhat,68617074-6963-42d7-9568-61742e6b6963,rev?*
G04 #@! TF.SameCoordinates,Original*
G04 #@! TF.FileFunction,Soldermask,Bot*
G04 #@! TF.FilePolarity,Negative*
%FSLAX46Y46*%
G04 Gerber Fmt 4.6, Leading zero omitted, Abs format (unit mm)*
G04 Created by KiCad (PCBNEW (5.1.4)-1) date 2019-11-05 21:54:15*
%MOMM*%
%LPD*%
G04 APERTURE LIST*
%ADD10C,2.000000*%
%ADD11R,2.000000X2.000000*%
%ADD12C,6.200000*%
%ADD13R,1.700000X1.700000*%
%ADD14O,1.700000X1.700000*%
G04 APERTURE END LIST*
D10*
X75750000Y-47000000D03*
X69250000Y-47000000D03*
X75750000Y-42500000D03*
D11*
X69250000Y-42500000D03*
D12*
X16000000Y-51000000D03*
X74000000Y-28000000D03*
X74000000Y-51000000D03*
X16000000Y-28000000D03*
D13*
X20870000Y-29270000D03*
D14*
X20870000Y-26730000D03*
X23410000Y-29270000D03*
X23410000Y-26730000D03*
X25950000Y-29270000D03*
X25950000Y-26730000D03*
X28490000Y-29270000D03*
X28490000Y-26730000D03*
X31030000Y-29270000D03*
X31030000Y-26730000D03*
X33570000Y-29270000D03*
X33570000Y-26730000D03*
X36110000Y-29270000D03*
X36110000Y-26730000D03*
X38650000Y-29270000D03*
X38650000Y-26730000D03*
X41190000Y-29270000D03*
X41190000Y-26730000D03*
X43730000Y-29270000D03*
X43730000Y-26730000D03*
X46270000Y-29270000D03*
X46270000Y-26730000D03*
X48810000Y-29270000D03*
X48810000Y-26730000D03*
X51350000Y-29270000D03*
X51350000Y-26730000D03*
X53890000Y-29270000D03*
X53890000Y-26730000D03*
X56430000Y-29270000D03*
X56430000Y-26730000D03*
X58970000Y-29270000D03*
X58970000Y-26730000D03*
X61510000Y-29270000D03*
X61510000Y-26730000D03*
X64050000Y-29270000D03*
X64050000Y-26730000D03*
X66590000Y-29270000D03*
X66590000Y-26730000D03*
X69130000Y-29270000D03*
X69130000Y-26730000D03*
D13*
X64000000Y-50000000D03*
D14*
X61460000Y-50000000D03*
X58920000Y-50000000D03*
X56380000Y-50000000D03*
X53840000Y-50000000D03*
X51300000Y-50000000D03*
X48760000Y-50000000D03*
X46220000Y-50000000D03*
X43680000Y-50000000D03*
X41140000Y-50000000D03*
X38600000Y-50000000D03*
X36060000Y-50000000D03*
X33520000Y-50000000D03*
X30980000Y-50000000D03*
X28440000Y-50000000D03*
X25900000Y-50000000D03*
D13*
X27305000Y-32067500D03*
D14*
X27305000Y-34607500D03*
X27305000Y-37147500D03*
X27305000Y-39687500D03*
D11*
X20953800Y-46979400D03*
D10*
X14453800Y-46979400D03*
X20953800Y-42479400D03*
X14453800Y-42479400D03*
M02*
